<svg xmlns="http://www.w3.org/2000/svg" version="1.1" xmlns:xlink="http://www.w3.org/1999/xlink" xmlns:svgjs="http://svgjs.dev/svgjs" width="1500" height="1500" viewBox="0 0 1500 1500"><rect width="1500" height="1500" fill="#000000"></rect><g transform="matrix(0.6666666666666666,0,0,0.6666666666666666,249.50000000000006,249.50069969173973)"><svg viewBox="0 0 280 280" data-background-color="#ffffff" preserveAspectRatio="xMidYMid meet" height="1500" width="1500" xmlns="http://www.w3.org/2000/svg" xmlns:xlink="http://www.w3.org/1999/xlink"><g id="tight-bounds" transform="matrix(1,0,0,1,0.13999999999998636,0.1401959136871085)"><svg viewBox="0 0 279.72 279.72" height="279.72" width="279.72"><g><svg viewBox="0 0 279.72 279.72" height="279.72" width="279.72"><g><svg viewBox="0 0 279.72 279.72" height="279.72" width="279.72"><g id="textblocktransform"><svg viewBox="0 0 279.72 279.72" height="279.72" width="279.72" id="textblock"><g><svg viewBox="0 0 279.72 279.72" height="279.72" width="279.72"><g transform="matrix(1,0,0,1,73.92936372216631,96.89340885134041)"><svg viewBox="0 0 131.8612725556674 85.93318229731919" height="85.93318229731919" width="131.8612725556674"><g id="icon-0"><svg xmlns="http://www.w3.org/2000/svg" xmlns:xlink="http://www.w3.org/1999/xlink" version="1.1" x="0" y="0" viewBox="0 0 59.68600000000001 38.897" enable-background="new 0 0 59.686 38.897" xml:space="preserve" id="jxe-0" width="131.8612725556674" height="85.93318229731919" class="icon-jxe-0" data-fill-palette-color="accent"><path fill="#ffffff" d="M20.981 3.353V0H2.778V3.353H0V38.897H8.526V31.592H15.208V38.897H23.376V3.353zM10.515 28.818H4.335V22.973H10.515zM10.515 21.152H4.335V15.308H10.515zM8.381 9.186V6.854H10.714V4.522H13.045V6.854H15.378V9.186H13.045V11.518H10.714V9.186zM19.041 28.818H12.862V22.973H19.041zM19.041 21.152H12.862V15.308H19.041z" data-fill-palette-color="accent"></path><g fill="#2b6b32" data-fill-palette-color="accent"><polygon fill="#ffffff" points="52.491,19.215 50.191,19.215 50.191,21.515 47.89,21.515 47.89,23.815 50.191,23.815    50.191,26.115 52.491,26.115 52.491,23.815 54.791,23.815 54.791,21.515 52.491,21.515  " data-fill-palette-color="accent"></polygon><path fill="#ffffff" d="M42.034 15.308V3.353H26.01V38.897H37.189V31.592H43.873V38.897H59.686V15.308zM33.236 27.017H28.633V22.666H33.236zM33.236 21.31H28.633V16.957H33.236zM33.236 15.903H28.633V11.552H33.236zM33.236 10.196H28.633V5.845H33.236zM39.583 27.017H34.982V22.666H39.583zM39.583 21.31H34.982V16.957H39.583zM39.583 15.903H34.982V11.552H39.583zM39.583 10.196H34.982V5.845H39.583zM51.34 27.887A5.222 5.222 0 1 1 51.34 17.442 5.222 5.222 0 0 1 51.34 27.887" data-fill-palette-color="accent"></path></g></svg></g></svg></g><g id="text-0"><path d="M26.534 104.511v0c-0.349 0.877-1.022 1.522-2.018 1.936-0.994 0.407-2.126 0.358-3.397-0.148v0c-0.636-0.253-1.329-0.628-2.081-1.127-0.745-0.495-1.506-1.015-2.283-1.56-0.768-0.549-1.499-1.061-2.194-1.535-0.688-0.473-1.286-0.81-1.795-1.013v0c-0.419-0.167-0.796-0.202-1.128-0.106-0.333 0.096-0.562 0.303-0.689 0.62v0c-0.164 0.413-0.099 0.962 0.196 1.646v0l-0.24 0.158c-0.398-0.129-0.828-0.399-1.29-0.811-0.455-0.409-0.847-0.933-1.174-1.572-0.328-0.638-0.521-1.382-0.581-2.23-0.062-0.842 0.101-1.752 0.49-2.731v0c0.438-1.1 1.153-1.768 2.146-2.006 0.987-0.241 2.017-0.147 3.091 0.28v0c0.121 0.048 0.248 0.099 0.381 0.152 0.133 0.053 0.257 0.113 0.37 0.18v0c-0.572-0.765-1.086-1.599-1.544-2.503-0.464-0.906-0.777-1.848-0.94-2.825-0.161-0.984-0.056-1.94 0.313-2.868v0c0.478-1.201 1.197-1.879 2.157-2.035 0.954-0.158 1.917-0.043 2.889 0.343v0c0.197 0.078 0.385 0.161 0.564 0.247 0.179 0.086 0.35 0.176 0.511 0.27v0c-0.558-0.818-1.085-1.687-1.58-2.606-0.496-0.919-0.835-1.878-1.019-2.879-0.181-1.007-0.063-2.035 0.355-3.083v0c0.516-1.297 1.25-2.031 2.202-2.205 0.946-0.176 1.931-0.06 2.954 0.347v0c0.902 0.359 1.891 0.881 2.966 1.567 1.071 0.676 2.124 1.35 3.161 2.02 1.039 0.664 1.949 1.151 2.731 1.462v0c0.464 0.185 0.869 0.268 1.214 0.251 0.345-0.017 0.581-0.185 0.708-0.502v0c0.106-0.267 0.127-0.55 0.061-0.848-0.068-0.292-0.194-0.53-0.379-0.714v0l0.232-0.25c0.902 0.359 1.595 0.933 2.077 1.721 0.478 0.779 0.752 1.635 0.821 2.569 0.064 0.931-0.06 1.787-0.37 2.569v0c-0.379 0.953-1.03 1.663-1.951 2.127-0.918 0.474-2.11 0.419-3.579-0.165v0c-0.902-0.359-1.831-0.865-2.786-1.517-0.964-0.649-1.892-1.287-2.784-1.914-0.9-0.623-1.668-1.062-2.304-1.314v0c-0.902-0.359-1.48-0.221-1.733 0.414v0c-0.185 0.464-0.176 0.997 0.026 1.601 0.195 0.6 0.535 1.199 1.019 1.797 0.481 0.604 1.021 1.153 1.618 1.649 0.594 0.487 1.209 0.857 1.845 1.109v0c0.585 0.233 1.253 0.421 2.005 0.566 0.746 0.142 1.437 0.34 2.072 0.593v0c1.271 0.506 2.109 1.248 2.515 2.227 0.397 0.982 0.405 1.95 0.027 2.903v0c-0.349 0.877-0.955 1.549-1.818 2.016-0.86 0.46-1.875 0.457-3.045-0.008v0c-0.54-0.215-1.166-0.549-1.877-1.001-0.711-0.452-1.452-0.939-2.224-1.46-0.766-0.518-1.51-1.006-2.234-1.463-0.724-0.457-1.378-0.802-1.962-1.035v0c-0.464-0.185-0.859-0.265-1.186-0.24-0.32 0.027-0.558 0.238-0.715 0.632v0c-0.223 0.559-0.153 1.209 0.207 1.949 0.354 0.737 0.857 1.445 1.508 2.124 0.648 0.685 1.313 1.233 1.995 1.644v0c0.161 0.094 0.287 0.166 0.378 0.217 0.097 0.053 0.145 0.08 0.145 0.08v0c0.756 0.301 1.48 0.49 2.171 0.566 0.691 0.076 1.364 0.245 2.019 0.505v0c1.201 0.478 2.053 1.233 2.555 2.264 0.506 1.041 0.575 2.025 0.205 2.953z" fill="#ffffff" data-fill-palette-color="primary"></path><path d="M50.963 60.366v0c-1.26 1.442-2.598 2.385-4.013 2.829-1.415 0.435-2.809 0.47-4.181 0.107-1.377-0.368-2.62-1.036-3.727-2.004v0c-1.046-0.914-1.923-2.035-2.633-3.364-0.7-1.33-1.146-2.769-1.337-4.316-0.186-1.544-0.056-3.106 0.39-4.688 0.441-1.586 1.276-3.082 2.505-4.488v0c1.521-1.741 3.023-2.668 4.503-2.782 1.48-0.124 2.776 0.301 3.889 1.273v0c0.948 0.828 1.603 1.846 1.965 3.053 0.357 1.202 0.415 2.43 0.175 3.682-0.24 1.262-0.792 2.387-1.657 3.376v0c-0.45 0.515-0.987 0.968-1.61 1.359-0.628 0.396-1.334 0.705-2.119 0.928v0c1.311 0.973 2.513 1.397 3.605 1.27 1.087-0.131 2.004-0.624 2.751-1.479v0c0.518-0.592 0.922-1.284 1.213-2.074 0.291-0.79 0.474-1.598 0.55-2.422 0.075-0.824 0.026-1.558-0.148-2.201v0l0.329-0.08c1.03 0.9 1.719 1.879 2.066 2.937 0.352 1.053 0.453 2.127 0.304 3.223-0.15 1.086-0.479 2.134-0.988 3.142-0.51 0.999-1.12 1.905-1.832 2.719zM43.545 52.67v0c0.554-0.633 0.821-1.308 0.802-2.025-0.024-0.711-0.195-1.383-0.514-2.016-0.323-0.628-0.673-1.106-1.049-1.435v0c-0.453-0.396-0.947-0.6-1.481-0.613-0.529-0.008-0.991 0.215-1.388 0.668v0c-0.311 0.355-0.524 0.859-0.64 1.512-0.112 0.647-0.004 1.413 0.322 2.298 0.331 0.879 1.007 1.852 2.029 2.918v0c0.847-0.377 1.487-0.813 1.919-1.307z" fill="#ffffff" data-fill-palette-color="primary"></path><path d="M74.884 39.479v0c-0.811 0.497-1.741 0.681-2.79 0.554-1.049-0.128-2.121-0.594-3.215-1.4-1.098-0.811-2.114-1.978-3.047-3.5v0c-0.961-1.569-1.594-3.107-1.899-4.612-0.308-1.512-0.36-2.92-0.156-4.224 0.2-1.31 0.595-2.454 1.183-3.432 0.588-0.978 1.296-1.721 2.124-2.228v0c0.916-0.561 1.907-0.775 2.975-0.643 1.068 0.132 2.105 0.72 3.114 1.763v0c-0.482-1.245-0.962-2.423-1.442-3.533-0.476-1.104-0.955-2.05-1.438-2.837v0c-0.632-1.032-1.226-1.7-1.779-2.002v0l-0.124-0.202c0.156-0.898 0.457-1.676 0.905-2.334 0.447-0.659 0.95-1.16 1.51-1.503v0c0.735-0.45 1.501-0.607 2.299-0.47 0.796 0.146 1.454 0.645 1.976 1.497v0c0.289 0.472 0.636 1.215 1.039 2.228 0.407 1.018 0.861 2.184 1.361 3.498 0.496 1.308 1.007 2.66 1.533 4.054 0.528 1.385 1.059 2.692 1.595 3.92 0.536 1.228 1.057 2.256 1.564 3.085v0c0.425 0.694 0.838 1.204 1.237 1.528 0.4 0.325 0.768 0.384 1.107 0.177v0c0.245-0.15 0.446-0.385 0.602-0.706 0.153-0.326 0.207-0.632 0.161-0.917v0l0.343 0.031c0.45 0.735 0.628 1.556 0.535 2.464-0.094 0.908-0.383 1.771-0.869 2.589-0.485 0.819-1.107 1.46-1.865 1.925v0c-0.828 0.507-1.624 0.682-2.387 0.523-0.766-0.164-1.468-0.544-2.106-1.14-0.644-0.592-1.211-1.264-1.702-2.014v0c0.296 2.041 0.21 3.722-0.257 5.043-0.476 1.318-1.172 2.258-2.087 2.818zM74.517 33.832v0c0.583-0.357 0.912-1.281 0.986-2.77 0.071-1.495-0.244-3.416-0.943-5.763v0l-0.436-1.164c-0.863-0.61-1.607-0.961-2.233-1.052-0.629-0.096-1.135-0.027-1.52 0.21v0c-0.56 0.343-0.896 0.974-1.007 1.892-0.121 0.916-0.04 1.945 0.243 3.088 0.279 1.137 0.742 2.233 1.389 3.288v0c0.615 1.003 1.243 1.701 1.884 2.094 0.642 0.393 1.187 0.452 1.637 0.177z" fill="#ffffff" data-fill-palette-color="primary"></path><path d="M109.641 24.13v0c-1.578 0.402-2.942 0.517-4.095 0.345-1.157-0.164-2.077-0.519-2.76-1.064-0.683-0.546-1.111-1.16-1.285-1.843v0c-0.247-0.968-0.032-1.94 0.643-2.917 0.677-0.97 1.755-1.644 3.234-2.021v0c0.331 1.299 0.761 2.294 1.29 2.985 0.529 0.691 1.094 1.136 1.696 1.336 0.608 0.198 1.154 0.235 1.638 0.112v0c0.583-0.149 1.03-0.446 1.34-0.893 0.31-0.446 0.4-0.921 0.272-1.424v0c-0.183-0.716-0.713-1.248-1.593-1.595-0.871-0.343-1.978-0.696-3.32-1.06v0c-0.675-0.209-1.416-0.461-2.225-0.756-0.809-0.295-1.542-0.719-2.199-1.271-0.656-0.553-1.104-1.3-1.344-2.241v0c-0.254-0.994-0.189-1.946 0.193-2.855 0.374-0.914 0.966-1.75 1.775-2.507 0.808-0.764 1.728-1.418 2.761-1.964 1.024-0.551 2.057-0.959 3.097-1.224v0c1.962-0.5 3.541-0.483 4.736 0.052 1.195 0.535 1.907 1.25 2.135 2.145v0c0.194 0.762-0.012 1.545-0.618 2.35-0.612 0.812-1.706 1.42-3.284 1.822v0c-0.305-1.306-0.816-2.189-1.533-2.648-0.709-0.455-1.381-0.601-2.018-0.439v0c-0.457 0.117-0.803 0.353-1.037 0.71-0.239 0.364-0.291 0.812-0.155 1.342v0c0.157 0.616 0.491 1.096 1.002 1.438 0.511 0.343 1.109 0.61 1.793 0.803 0.684 0.193 1.384 0.36 2.098 0.503v0c0.971 0.183 1.897 0.409 2.778 0.679 0.879 0.263 1.635 0.624 2.267 1.084 0.633 0.46 1.056 1.111 1.271 1.953v0c0.292 1.147 0.1 2.329-0.578 3.546-0.678 1.218-1.719 2.323-3.125 3.317-1.397 0.999-3.014 1.732-4.85 2.2z" fill="#ffffff" data-fill-palette-color="primary"></path><path d="M144.227 27.863v0c-1.312-0.053-2.355-0.496-3.129-1.329-0.767-0.832-1.123-1.932-1.068-3.298v0c0.029-0.704 0.187-1.478 0.475-2.323 0.281-0.844 0.731-1.73 1.35-2.656v0c-1.289-0.128-2.331-0.601-3.126-1.421-0.795-0.826-1.16-2.039-1.094-3.638v0c0.038-0.943 0.206-1.956 0.503-3.04 0.29-1.077 0.574-2.089 0.852-3.036 0.272-0.954 0.418-1.695 0.44-2.22v0c0.016-0.39-0.051-0.673-0.202-0.851-0.15-0.177-0.328-0.27-0.533-0.278v0c-0.212-0.009-0.448 0.067-0.707 0.228-0.253 0.161-0.451 0.41-0.596 0.746v0l-0.647-0.735c0.191-0.814 0.562-1.524 1.113-2.132 0.552-0.607 1.218-1.08 1.998-1.418 0.774-0.338 1.567-0.491 2.381-0.458v0c0.923 0.037 1.71 0.367 2.363 0.99 0.66 0.616 0.958 1.699 0.895 3.25v0c-0.039 0.971-0.198 2.012-0.476 3.123-0.284 1.104-0.563 2.144-0.836 3.119-0.279 0.974-0.431 1.752-0.454 2.333v0c-0.021 0.519 0.076 0.91 0.292 1.172 0.209 0.255 0.46 0.388 0.753 0.401v0c0.362 0.015 0.791-0.17 1.286-0.554 0.488-0.391 0.96-1.05 1.415-1.976 0.462-0.926 0.791-2.189 0.986-3.79v0c0.075-0.497 0.138-1.131 0.19-1.903 0.059-0.771 0.115-1.491 0.17-2.159 0.055-0.669 0.085-1.082 0.091-1.239v0c0.039-0.95 0.414-1.599 1.127-1.947 0.713-0.354 1.489-0.515 2.33-0.48v0c0.731 0.03 1.419 0.201 2.063 0.515 0.644 0.314 1.072 0.817 1.284 1.51v0l0.073 0.239c-0.248 0.202-0.482 0.905-0.702 2.108-0.22 1.203-0.491 2.807-0.812 4.814v0c-0.21 1.306-0.466 2.785-0.765 4.436-0.306 1.644-0.695 3.292-1.166 4.943-0.478 1.651-1.08 3.163-1.807 4.537-0.727 1.381-1.607 2.478-2.639 3.292-1.032 0.807-2.256 1.182-3.671 1.125zM143.458 23.303v0c0.82 0.033 1.582-0.679 2.284-2.136 0.703-1.464 1.294-3.552 1.774-6.264v0c-1.769 2.085-2.996 3.729-3.681 4.934-0.679 1.212-1.03 2.094-1.053 2.648v0c-0.021 0.526 0.204 0.799 0.676 0.818z" fill="#ffffff" data-fill-palette-color="primary"></path><path d="M177.32 26.294v0c-1.54-0.529-2.744-1.181-3.613-1.956-0.878-0.771-1.453-1.573-1.724-2.404-0.272-0.831-0.293-1.58-0.064-2.246v0c0.324-0.945 1.037-1.64 2.137-2.087 1.099-0.44 2.369-0.413 3.812 0.083v0c-0.435 1.268-0.621 2.336-0.558 3.204 0.064 0.868 0.292 1.55 0.686 2.047 0.4 0.499 0.836 0.829 1.309 0.992v0c0.569 0.195 1.106 0.192 1.609-0.012 0.504-0.203 0.84-0.551 1.009-1.042v0c0.24-0.699 0.087-1.435-0.457-2.207-0.54-0.764-1.272-1.666-2.196-2.707v0c-0.449-0.545-0.932-1.162-1.446-1.852-0.515-0.69-0.896-1.447-1.142-2.269-0.246-0.822-0.211-1.692 0.105-2.611v0c0.333-0.97 0.909-1.731 1.727-2.282 0.814-0.559 1.767-0.934 2.859-1.123 1.094-0.196 2.223-0.239 3.385-0.129 1.159 0.101 2.246 0.326 3.262 0.675v0c1.915 0.657 3.226 1.538 3.931 2.641 0.706 1.103 0.909 2.091 0.61 2.965v0c-0.255 0.744-0.857 1.286-1.806 1.625-0.957 0.344-2.205 0.252-3.745-0.277v0c0.461-1.259 0.518-2.278 0.17-3.055-0.344-0.769-0.826-1.26-1.447-1.473v0c-0.446-0.153-0.865-0.145-1.256 0.025-0.4 0.174-0.688 0.52-0.866 1.037v0c-0.207 0.602-0.19 1.186 0.049 1.752 0.239 0.567 0.592 1.118 1.06 1.655 0.467 0.536 0.96 1.06 1.478 1.571v0c0.712 0.686 1.362 1.383 1.951 2.091 0.591 0.702 1.025 1.418 1.302 2.15 0.277 0.731 0.274 1.508-0.008 2.329v0c-0.384 1.119-1.194 2.002-2.428 2.649-1.234 0.647-2.712 1-4.432 1.06-1.716 0.069-3.47-0.204-5.263-0.819z" fill="#ffffff" data-fill-palette-color="primary"></path><path d="M200.345 45.68v0c-0.53-0.387-0.937-0.891-1.22-1.513-0.274-0.623-0.339-1.357-0.198-2.202 0.138-0.839 0.588-1.781 1.35-2.825v0c0.726-0.995 1.646-1.978 2.763-2.951 1.12-0.978 2.281-1.931 3.482-2.857 1.196-0.931 2.313-1.83 3.352-2.698 1.043-0.873 1.865-1.721 2.467-2.545v0c0.452-0.619 0.675-1.099 0.67-1.441-0.006-0.352-0.125-0.612-0.357-0.781v0c-0.216-0.157-0.477-0.246-0.784-0.267-0.308-0.03-0.595-0.015-0.859 0.046v0l-0.133-0.288c0.544-0.746 1.26-1.274 2.146-1.583 0.892-0.306 1.817-0.402 2.775-0.287 0.962 0.109 1.805 0.428 2.529 0.955v0c0.702 0.512 1.134 1.098 1.296 1.758 0.172 0.659 0.169 1.347-0.008 2.065-0.182 0.714-0.483 1.405-0.902 2.073v0c1.734-0.682 3.302-0.986 4.704-0.912 1.403 0.084 2.531 0.437 3.382 1.057v0c1.149 0.839 1.727 2.09 1.732 3.753 0.006 1.664-0.82 3.631-2.477 5.903v0c-1.548 2.122-3.186 3.653-4.914 4.594-1.724 0.935-3.363 1.382-4.916 1.341-1.544-0.043-2.846-0.451-3.907-1.225v0c-0.912-0.665-1.557-1.551-1.936-2.656-0.384-1.11-0.41-2.34-0.077-3.689v0c-0.825 0.736-1.615 1.476-2.37 2.221-0.759 0.75-1.433 1.529-2.022 2.335v0c-0.327 0.448-0.617 0.904-0.872 1.37-0.257 0.456-0.477 0.944-0.66 1.462v0l-0.139 0.191c-0.663 0.329-1.34 0.445-2.031 0.347-0.691-0.098-1.313-0.348-1.866-0.751zM213.009 40.63v0c0.508 0.371 1.1 0.494 1.776 0.369 0.676-0.125 1.389-0.413 2.141-0.864 0.748-0.445 1.461-0.987 2.14-1.627 0.682-0.645 1.278-1.316 1.785-2.012v0c0.653-0.895 1.091-1.74 1.315-2.534 0.228-0.799 0.095-1.378-0.396-1.737v0c-0.613-0.448-1.758-0.33-3.433 0.353-1.67 0.687-3.638 2.138-5.906 4.353v0c-0.286 0.799-0.38 1.531-0.281 2.196 0.103 0.659 0.39 1.161 0.859 1.503z" fill="#ffffff" data-fill-palette-color="primary"></path><path d="M233.136 65.338v0c-0.568-0.763-0.76-1.669-0.576-2.718 0.179-1.054 0.84-2.006 1.981-2.855v0c0.549-0.408 1.219-0.809 2.009-1.2 0.785-0.388 1.606-0.769 2.463-1.142 0.851-0.369 1.647-0.731 2.389-1.087 0.736-0.351 1.315-0.684 1.738-0.999v0c0.439-0.327 0.731-0.668 0.876-1.022 0.145-0.355 0.124-0.659-0.064-0.912v0c-0.298-0.401-0.879-0.608-1.742-0.622v0l-0.01-0.287c0.323-0.266 0.778-0.489 1.368-0.672 0.588-0.173 1.231-0.242 1.93-0.208 0.703 0.04 1.409 0.226 2.117 0.56 0.713 0.339 1.353 0.89 1.921 1.653v0c0.829 1.114 1.107 2.164 0.835 3.151-0.262 0.988-0.846 1.819-1.752 2.493v0c-0.148 0.11-0.306 0.219-0.473 0.326-0.167 0.107-0.333 0.205-0.498 0.294v0c1.935-0.263 3.578-0.25 4.929 0.042 1.345 0.295 2.285 0.802 2.82 1.521v0c0.498 0.67 0.602 1.359 0.312 2.07-0.29 0.71-0.803 1.339-1.538 1.886v0c-0.675 0.502-1.459 0.881-2.352 1.136-0.893 0.255-1.756 0.292-2.59 0.111-0.843-0.182-1.528-0.65-2.053-1.402v0l-0.026-0.172c0.527-0.426 0.823-0.928 0.888-1.505 0.069-0.572-0.053-1.069-0.367-1.491v0c-0.425-0.571-1.106-0.891-2.045-0.96-0.938-0.069-1.945 0.296-3.021 1.096v0c-0.653 0.486-1.305 1.082-1.956 1.788-0.647 0.712-1.237 1.265-1.769 1.662v0c-0.631 0.47-1.318 0.755-2.062 0.856-0.747 0.096-1.448 0.025-2.102-0.214-0.645-0.236-1.171-0.629-1.58-1.177z" fill="#ffffff" data-fill-palette-color="primary"></path><path d="M250.832 97.504v0c-0.679-1.849-0.872-3.516-0.579-5.001 0.302-1.481 0.956-2.734 1.964-3.76 1.008-1.026 2.202-1.792 3.583-2.299v0c1.31-0.481 2.705-0.72 4.185-0.717 1.484-0.006 2.934 0.26 4.348 0.797 1.412 0.531 2.689 1.341 3.832 2.43 1.145 1.095 2.035 2.506 2.67 4.233v0c0.679 1.849 0.862 3.509 0.549 4.98-0.313 1.47-0.978 2.724-1.997 3.76-1.027 1.033-2.244 1.808-3.65 2.324v0c-1.278 0.469-2.651 0.707-4.12 0.715-1.469 0.007-2.91-0.254-4.322-0.785-1.412-0.531-2.684-1.346-3.816-2.446-1.13-1.093-2.012-2.504-2.647-4.231zM254.35 97.349v0c0.243 0.661 0.79 1.091 1.642 1.288 0.856 0.188 1.86 0.195 3.013 0.019 1.155-0.169 2.288-0.457 3.399-0.865v0c0.989-0.363 1.886-0.798 2.69-1.305 0.811-0.509 1.426-1.048 1.844-1.617 0.415-0.575 0.515-1.158 0.298-1.749v0c-0.236-0.642-0.781-1.065-1.635-1.268-0.861-0.201-1.862-0.22-3.005-0.056-1.14 0.171-2.278 0.465-3.414 0.882v0c-0.989 0.363-1.887 0.795-2.694 1.296-0.805 0.507-1.418 1.049-1.84 1.626-0.418 0.569-0.517 1.152-0.298 1.749z" fill="#ffffff" data-fill-palette-color="primary"></path><path d="M0.134 139.33c0-5.838 4.733-10.571 10.571-10.571 5.838 0 10.571 4.733 10.571 10.571 0 5.838-4.733 10.571-10.571 10.571-5.838 0-10.571-4.733-10.571-10.571z" fill="#ffffff" data-fill-palette-color="primary"></path><path d="M258.444 139.33c0-5.838 4.733-10.571 10.571-10.571 5.838 0 10.571 4.733 10.571 10.571 0 5.838-4.733 10.571-10.571 10.571-5.838 0-10.571-4.733-10.571-10.571z" fill="#ffffff" data-fill-palette-color="primary"></path></g><g id="text-1"><path d="M16.358 183.478v0c-0.112-0.079-0.226-0.196-0.342-0.353-0.116-0.156-0.209-0.342-0.279-0.557v0c-0.081-0.247-0.116-0.477-0.106-0.688 0.014-0.221 0.094-0.394 0.241-0.521v0c1.445-1.371 2.781-2.591 4.008-3.66 1.22-1.067 2.236-1.935 3.047-2.602v0l-0.028-0.088c-1.159 0.328-2.243 0.624-3.251 0.888-1.012 0.273-1.989 0.53-2.932 0.772-0.945 0.236-1.913 0.487-2.905 0.754-0.986 0.264-2.041 0.536-3.166 0.816v0c-0.062-0.08-0.13-0.188-0.202-0.322-0.081-0.139-0.148-0.29-0.202-0.453v0c-0.11-0.338-0.116-0.599-0.017-0.782 0.105-0.185 0.278-0.317 0.518-0.395v0c0.182-0.059 0.613-0.182 1.294-0.368 0.676-0.177 1.505-0.394 2.486-0.649 0.979-0.262 2.028-0.532 3.146-0.811 1.116-0.285 2.218-0.558 3.306-0.819 1.088-0.261 2.073-0.493 2.957-0.694v0c0.144 0.09 0.299 0.233 0.464 0.431 0.172 0.196 0.305 0.44 0.401 0.733v0c0.115 0.351 0.14 0.67 0.075 0.957-0.056 0.292-0.205 0.552-0.446 0.783v0c-0.651 0.651-1.37 1.325-2.158 2.02-0.788 0.696-1.577 1.385-2.369 2.068-0.792 0.683-1.537 1.332-2.235 1.948v0l0.028 0.088c1.84 0.148 3.619 0.309 5.338 0.482 1.712 0.175 3.17 0.322 4.374 0.441v0c0.123 0.111 0.238 0.268 0.347 0.469 0.109 0.202 0.193 0.394 0.253 0.576v0c0.115 0.351 0.146 0.647 0.095 0.887-0.049 0.246-0.193 0.444-0.432 0.594v0c-0.241 0.143-0.661 0.356-1.26 0.638-0.601 0.275-1.315 0.591-2.141 0.946-0.82 0.354-1.683 0.718-2.59 1.093-0.915 0.37-1.811 0.735-2.687 1.092-0.885 0.353-1.683 0.675-2.395 0.965-0.705 0.287-1.269 0.511-1.691 0.67v0c-0.136-0.107-0.252-0.231-0.348-0.372-0.094-0.135-0.174-0.303-0.24-0.505v0c-0.074-0.228-0.081-0.448-0.022-0.662 0.053-0.212 0.227-0.384 0.523-0.515v0c1.453-0.575 2.888-1.14 4.303-1.695 1.416-0.555 2.719-1.06 3.91-1.513 1.182-0.457 2.149-0.834 2.902-1.13v0l-0.029-0.088c-0.949-0.065-2.182-0.17-3.697-0.316-1.509-0.148-3.458-0.333-5.846-0.553z" fill="#ffffff" data-fill-palette-color="secondary"></path><path d="M21.489 194.989l1.323-0.75 4.079 6.104c0.766-0.443 1.287-1.036 1.563-1.78 0.27-0.741 0.193-1.545-0.23-2.412v0c-0.435-0.891-1.115-1.472-2.04-1.744-0.934-0.275-2-0.119-3.198 0.467v0l-0.48 0.234c-1.098 0.666-1.788 1.475-2.069 2.427-0.275 0.949-0.134 1.992 0.422 3.129v0c0.297 0.608 0.664 1.11 1.101 1.506 0.443 0.393 0.852 0.676 1.227 0.851v0c-0.026 0.211-0.085 0.395-0.175 0.553-0.09 0.158-0.221 0.279-0.394 0.364v0c-0.277 0.135-0.61 0.108-0.999-0.083-0.393-0.196-0.785-0.515-1.175-0.956-0.4-0.444-0.754-0.983-1.064-1.615v0c-0.544-1.112-0.812-2.176-0.806-3.192 0.006-1.016 0.302-1.937 0.888-2.764 0.589-0.836 1.461-1.536 2.616-2.101v0c0.824-0.402 1.613-0.64 2.37-0.712 0.762-0.076 1.472-0.011 2.127 0.194 0.65 0.208 1.24 0.551 1.772 1.03 0.528 0.473 0.962 1.057 1.301 1.751v0c0.429 0.879 0.62 1.745 0.572 2.598-0.045 0.859-0.309 1.643-0.792 2.351-0.49 0.711-1.168 1.279-2.035 1.702v0c-0.313 0.153-0.575 0.194-0.785 0.122-0.207-0.081-0.389-0.244-0.547-0.487v0z" fill="#ffffff" data-fill-palette-color="secondary"></path><path d="M29.781 214.673l6.848-4.319 1.046 1.621-6.925 4.368c-0.26 0.164-0.505 0.238-0.735 0.22-0.229-0.017-0.496-0.1-0.799-0.248v0c-0.351-0.159-0.763-0.441-1.237-0.845-0.474-0.405-0.917-0.934-1.329-1.588v0c-0.617-0.978-0.99-1.948-1.119-2.909-0.129-0.962 0.037-1.884 0.5-2.766 0.457-0.878 1.264-1.683 2.421-2.412v0c1.18-0.744 2.269-1.14 3.267-1.187 0.994-0.053 1.889 0.167 2.684 0.66 0.792 0.487 1.453 1.15 1.983 1.989v0c0.336 0.532 0.578 1.083 0.726 1.652 0.152 0.575 0.207 1.066 0.165 1.473v0l-1.51 0.953c0.09-0.421 0.097-0.898 0.019-1.432-0.074-0.528-0.288-1.072-0.642-1.633v0c-0.35-0.555-0.794-0.996-1.33-1.32-0.54-0.331-1.171-0.466-1.894-0.407-0.723 0.059-1.541 0.378-2.455 0.954v0c-1.232 0.777-1.944 1.643-2.135 2.596-0.182 0.956 0.039 1.928 0.663 2.918v0c0.299 0.474 0.595 0.834 0.886 1.078 0.298 0.241 0.598 0.436 0.902 0.584zM37.267 212.232l-1.046-1.62 5.155-3.252c0.073 0.051 0.172 0.138 0.298 0.261 0.122 0.117 0.231 0.251 0.326 0.401v0c0.19 0.301 0.272 0.56 0.248 0.778-0.028 0.212-0.172 0.4-0.433 0.564v0z" fill="#ffffff" data-fill-palette-color="secondary"></path><path d="M44.197 212.948v0c0.273-0.206 0.574-0.284 0.904-0.233 0.33 0.051 0.602 0.218 0.817 0.502v0c0.223 0.295 0.309 0.602 0.259 0.922-0.049 0.32-0.211 0.584-0.483 0.79v0c-0.267 0.202-0.562 0.283-0.883 0.243-0.322-0.04-0.594-0.207-0.817-0.501v0c-0.214-0.284-0.301-0.591-0.26-0.923 0.041-0.331 0.195-0.598 0.463-0.8zM37.756 218.176l1.163 1.539-5.034 3.805c-0.077-0.045-0.179-0.118-0.306-0.219-0.132-0.106-0.255-0.236-0.371-0.388v0c-0.202-0.267-0.302-0.513-0.3-0.738 0.002-0.224 0.126-0.429 0.371-0.615v0zM38.174 220.278l-1.163-1.539 4.519-3.415c0.071 0.049 0.173 0.127 0.304 0.233 0.136 0.112 0.262 0.244 0.377 0.397v0c0.206 0.273 0.304 0.516 0.294 0.729-0.006 0.219-0.137 0.425-0.393 0.619v0z" fill="#ffffff" data-fill-palette-color="secondary"></path><path d="M48.36 225.266v0c-0.73-0.815-1.61-1.243-2.64-1.286-1.039-0.042-2.073 0.398-3.102 1.32v0c-1.014 0.908-1.563 1.869-1.647 2.882-0.085 1.013 0.254 1.944 1.016 2.795v0c0.452 0.504 0.895 0.86 1.33 1.068 0.439 0.213 0.866 0.372 1.282 0.477v0c0.047 0.196 0.054 0.383 0.02 0.56-0.034 0.187-0.128 0.349-0.281 0.486v0c-0.336 0.301-0.845 0.307-1.527 0.019-0.677-0.284-1.349-0.798-2.016-1.542v0c-0.74-0.825-1.241-1.708-1.504-2.648-0.269-0.935-0.246-1.878 0.068-2.83 0.314-0.952 0.96-1.866 1.937-2.742v0c0.973-0.872 1.957-1.409 2.951-1.611 0.994-0.202 1.949-0.121 2.864 0.244 0.915 0.355 1.72 0.92 2.415 1.694v0c0.667 0.744 1.092 1.469 1.275 2.177 0.179 0.712 0.108 1.212-0.212 1.5v0c-0.143 0.128-0.304 0.199-0.484 0.213-0.19 0.014-0.37-0.018-0.54-0.095v0c-0.059-0.425-0.164-0.854-0.315-1.288-0.155-0.44-0.452-0.904-0.89-1.393z" fill="#ffffff" data-fill-palette-color="secondary"></path><path d="M50.792 239.644v0c0.501 0.456 0.959 0.781 1.375 0.975 0.421 0.198 0.746 0.314 0.975 0.346v0l2.355-2.587-2.422-1.775c-0.664-0.521-1.246-0.801-1.746-0.84-0.506-0.044-0.952 0.146-1.339 0.571v0c-0.401 0.44-0.539 0.943-0.416 1.508 0.124 0.575 0.53 1.176 1.218 1.802zM57.643 232.089v0c1.032 0.939 1.639 1.918 1.823 2.937 0.188 1.013-0.174 2.02-1.086 3.021v0l-3.841 4.218c-0.239 0.263-0.472 0.417-0.697 0.461-0.225 0.044-0.495 0.035-0.808-0.027v0c-0.426-0.111-0.937-0.317-1.532-0.618-0.595-0.301-1.189-0.721-1.781-1.261v0c-1.118-1.018-1.782-2.025-1.994-3.022-0.211-0.997 0.061-1.911 0.816-2.74v0c0.705-0.774 1.501-1.131 2.391-1.071 0.889 0.06 1.83 0.464 2.824 1.211v0l2.762 2.057 0.449-0.493c0.543-0.597 0.76-1.195 0.649-1.795-0.105-0.595-0.462-1.17-1.068-1.722v0c-0.486-0.442-1.015-0.795-1.59-1.059-0.574-0.264-1.116-0.461-1.625-0.592v0c-0.018-0.173-0.017-0.353 0.003-0.538 0.025-0.18 0.093-0.331 0.204-0.452v0c0.281-0.309 0.669-0.39 1.166-0.244v0c0.476 0.128 0.963 0.34 1.46 0.636 0.508 0.296 0.999 0.66 1.475 1.093z" fill="#ffffff" data-fill-palette-color="secondary"></path><path d="M61.698 242.151l1.345 1.412-3.7 4.752c-0.086-0.023-0.203-0.067-0.353-0.132-0.155-0.068-0.308-0.162-0.459-0.279v0c-0.264-0.206-0.425-0.418-0.481-0.635-0.056-0.217 0.01-0.447 0.2-0.69v0zM62.482 244.283l-1.358-1.395 6.26-8.039c0.086 0.023 0.206 0.069 0.361 0.138 0.16 0.073 0.31 0.164 0.451 0.273v0c0.281 0.219 0.444 0.432 0.489 0.641 0.051 0.213-0.018 0.441-0.207 0.684v0z" fill="#ffffff" data-fill-palette-color="secondary"></path><path d="M79.33 256.178v0c-0.135 0.019-0.299 0.011-0.49-0.024-0.191-0.035-0.386-0.107-0.584-0.216v0c-0.228-0.125-0.41-0.269-0.548-0.431-0.14-0.171-0.2-0.352-0.18-0.544v0c0.119-1.988 0.26-3.792 0.425-5.411 0.162-1.613 0.311-2.94 0.447-3.982v0l-0.081-0.045c-0.623 1.032-1.212 1.988-1.766 2.869-0.553 0.89-1.09 1.746-1.613 2.568-0.528 0.818-1.064 1.663-1.607 2.535-0.539 0.866-1.124 1.786-1.753 2.76v0c-0.1-0.016-0.223-0.049-0.368-0.098-0.154-0.046-0.306-0.11-0.456-0.192v0c-0.312-0.172-0.494-0.358-0.548-0.559-0.05-0.207-0.014-0.421 0.109-0.643v0c0.092-0.168 0.323-0.552 0.693-1.153 0.372-0.591 0.83-1.316 1.372-2.173 0.536-0.86 1.117-1.774 1.743-2.741 0.62-0.97 1.238-1.923 1.854-2.857 0.616-0.934 1.177-1.776 1.684-2.528v0c0.167-0.033 0.378-0.034 0.634-0.002 0.259 0.026 0.524 0.113 0.793 0.261v0c0.324 0.178 0.56 0.394 0.709 0.648 0.158 0.251 0.228 0.543 0.209 0.876v0c-0.03 0.92-0.095 1.904-0.195 2.95-0.1 1.046-0.205 2.089-0.317 3.128-0.112 1.04-0.212 2.023-0.3 2.95v0l0.081 0.045c1.445-1.149 2.854-2.247 4.226-3.295 1.37-1.042 2.535-1.931 3.495-2.668v0c0.165-0.003 0.357 0.033 0.575 0.106 0.218 0.073 0.41 0.156 0.578 0.248v0c0.324 0.178 0.549 0.372 0.675 0.582 0.132 0.213 0.163 0.456 0.09 0.729v0c-0.078 0.269-0.239 0.711-0.484 1.327-0.251 0.612-0.556 1.33-0.917 2.154-0.357 0.819-0.738 1.674-1.144 2.567-0.415 0.896-0.82 1.774-1.216 2.634-0.405 0.863-0.768 1.643-1.089 2.34-0.318 0.692-0.577 1.24-0.777 1.646v0c-0.172 0.015-0.341 0.003-0.508-0.034-0.161-0.034-0.334-0.102-0.52-0.204v0c-0.21-0.115-0.366-0.272-0.468-0.469-0.106-0.191-0.096-0.435 0.029-0.734v0c0.668-1.412 1.33-2.805 1.984-4.178 0.654-1.373 1.262-2.632 1.821-3.776 0.55-1.142 0.999-2.077 1.346-2.808v0l-0.08-0.044c-0.737 0.601-1.709 1.367-2.916 2.295-1.203 0.923-2.752 2.12-4.647 3.591z" fill="#ffffff" data-fill-palette-color="secondary"></path><path d="M92.885 265.147v0c0.632 0.244 1.177 0.38 1.635 0.41 0.464 0.032 0.809 0.022 1.034-0.03v0l1.259-3.264-2.9-0.778c-0.807-0.245-1.451-0.296-1.932-0.151-0.487 0.142-0.834 0.481-1.041 1.017v0c-0.214 0.555-0.161 1.074 0.158 1.557 0.324 0.491 0.92 0.904 1.788 1.239zM96.536 255.624v0c1.302 0.502 2.223 1.194 2.762 2.077 0.542 0.876 0.569 1.946 0.082 3.209v0l-2.053 5.323c-0.128 0.332-0.289 0.559-0.483 0.682-0.194 0.123-0.448 0.212-0.762 0.267v0c-0.438 0.051-0.988 0.044-1.653-0.021-0.664-0.065-1.369-0.242-2.116-0.53v0c-1.41-0.544-2.395-1.242-2.953-2.096-0.558-0.853-0.635-1.803-0.231-2.849v0c0.377-0.976 0.99-1.598 1.84-1.864 0.85-0.266 1.874-0.23 3.071 0.107v0l3.319 0.917 0.24-0.622c0.29-0.753 0.276-1.389-0.044-1.909-0.314-0.517-0.854-0.923-1.62-1.219v0c-0.613-0.236-1.234-0.373-1.865-0.411-0.631-0.038-1.207-0.026-1.729 0.037v0c-0.079-0.155-0.143-0.323-0.191-0.503-0.042-0.177-0.033-0.343 0.026-0.495v0c0.15-0.389 0.483-0.606 0.998-0.649v0c0.49-0.053 1.02-0.032 1.592 0.064 0.58 0.092 1.171 0.253 1.77 0.485z" fill="#ffffff" data-fill-palette-color="secondary"></path><path d="M113.343 264.95l-0.636 2.379-1.863-0.498 0.609-2.28c0.233-0.872 0.159-1.575-0.222-2.109-0.381-0.534-0.982-0.91-1.801-1.129v0c-0.621-0.166-1.194-0.234-1.719-0.205-0.523 0.023-0.984 0.091-1.382 0.204v0l-1.076 4.025-1.863-0.498 1.052-3.936c0.087-0.324 0.224-0.574 0.413-0.75 0.189-0.176 0.471-0.32 0.848-0.431v0c0.473-0.128 1.071-0.206 1.793-0.232 0.724-0.033 1.506 0.063 2.345 0.287v0c1.408 0.376 2.434 0.998 3.081 1.864 0.641 0.858 0.782 1.961 0.421 3.309zM103.732 263.56l1.863 0.498-1.592 5.957c-0.088 0.012-0.213 0.017-0.376 0.017-0.169-0.003-0.346-0.029-0.532-0.079v0c-0.324-0.087-0.554-0.219-0.69-0.397-0.136-0.178-0.165-0.416-0.086-0.713v0zM111.186 265.553l1.863 0.498-1.592 5.957c-0.088 0.012-0.217 0.016-0.386 0.014-0.176-0.005-0.35-0.03-0.522-0.076v0c-0.344-0.092-0.577-0.225-0.7-0.4-0.13-0.176-0.155-0.413-0.076-0.71v0z" fill="#ffffff" data-fill-palette-color="secondary"></path><path d="M121.319 272.385v0c0.67 0.1 1.231 0.114 1.684 0.044 0.46-0.07 0.794-0.155 1.003-0.256v0l0.515-3.461-3-0.124c-0.841-0.063-1.481 0.029-1.919 0.274-0.444 0.245-0.709 0.652-0.793 1.22v0c-0.088 0.589 0.077 1.083 0.494 1.485 0.423 0.409 1.095 0.682 2.016 0.818zM122.799 262.294v0c1.38 0.205 2.43 0.68 3.15 1.423 0.72 0.737 0.981 1.775 0.781 3.115v0l-0.84 5.642c-0.052 0.352-0.16 0.609-0.322 0.772-0.163 0.163-0.391 0.305-0.686 0.427v0c-0.416 0.146-0.955 0.259-1.617 0.34-0.662 0.081-1.389 0.063-2.18-0.055v0c-1.495-0.223-2.608-0.689-3.34-1.399-0.731-0.71-1.014-1.62-0.849-2.73v0c0.154-1.035 0.617-1.775 1.389-2.221 0.772-0.445 1.778-0.634 3.02-0.567v0l3.439 0.169 0.098-0.659c0.119-0.798-0.035-1.416-0.46-1.853-0.419-0.436-1.035-0.714-1.847-0.835v0c-0.65-0.097-1.286-0.095-1.91 0.006-0.624 0.101-1.184 0.239-1.68 0.414v0c-0.111-0.134-0.21-0.284-0.296-0.448-0.079-0.164-0.107-0.327-0.083-0.49v0c0.061-0.413 0.339-0.696 0.832-0.851v0c0.466-0.159 0.989-0.254 1.568-0.286 0.586-0.037 1.198-0.009 1.833 0.087z" fill="#ffffff" data-fill-palette-color="secondary"></path><path d="M135.944 274.524v0c-0.93-0.037-1.78-0.252-2.551-0.646-0.772-0.394-1.384-1.007-1.837-1.84-0.446-0.839-0.642-1.936-0.587-3.289v0c0.049-1.217 0.325-2.226 0.829-3.026 0.504-0.801 1.185-1.394 2.043-1.778 0.851-0.384 1.812-0.554 2.885-0.511v0c0.738 0.029 1.415 0.149 2.029 0.359 0.608 0.209 1.115 0.459 1.521 0.748v0c0.24 0.167 0.431 0.356 0.573 0.567 0.142 0.204 0.208 0.453 0.196 0.748v0l-0.297 7.432-1.927-0.076 0.296-7.413c-0.266-0.189-0.602-0.359-1.007-0.512-0.405-0.153-0.887-0.241-1.447-0.264v0c-1.073-0.043-1.954 0.251-2.644 0.881-0.683 0.637-1.05 1.604-1.102 2.903v0c-0.058 1.442 0.236 2.484 0.882 3.126 0.639 0.635 1.447 0.972 2.424 1.011v0c0.711 0.028 1.286-0.068 1.727-0.291 0.447-0.222 0.803-0.475 1.067-0.758v0l0.034 1.716c-0.256 0.25-0.649 0.47-1.176 0.662-0.528 0.198-1.172 0.282-1.931 0.251zM138.736 275.334l0.101-2.522 1.927 0.077-0.106 2.645c-0.042 1.059-0.305 1.901-0.788 2.525-0.484 0.624-1.128 1.064-1.932 1.32-0.805 0.262-1.706 0.373-2.704 0.333v0c-0.807-0.032-1.493-0.149-2.06-0.349-0.574-0.201-0.961-0.364-1.162-0.488v0c-0.475-0.286-0.703-0.641-0.686-1.065v0c0.009-0.219 0.071-0.404 0.186-0.557 0.109-0.146 0.243-0.257 0.404-0.333v0c0.331 0.273 0.8 0.528 1.407 0.765 0.613 0.244 1.272 0.379 1.976 0.407v0c1.073 0.043 1.906-0.157 2.498-0.598 0.586-0.442 0.899-1.162 0.939-2.16z" fill="#ffffff" data-fill-palette-color="secondary"></path><path d="M146.836 270.404l-0.205-1.507 7.183-1.519c-0.127-0.875-0.484-1.579-1.072-2.112-0.588-0.526-1.362-0.753-2.325-0.682v0c-0.989 0.073-1.781 0.488-2.377 1.246-0.602 0.765-0.854 1.812-0.755 3.142v0l0.04 0.532c0.21 1.267 0.705 2.208 1.484 2.822 0.779 0.608 1.799 0.865 3.062 0.772v0c0.675-0.05 1.278-0.204 1.807-0.463 0.529-0.266 0.944-0.54 1.246-0.823v0c0.186 0.103 0.336 0.226 0.449 0.368 0.113 0.143 0.177 0.309 0.191 0.5v0c0.023 0.307-0.127 0.606-0.448 0.898-0.328 0.292-0.77 0.537-1.324 0.736-0.561 0.206-1.193 0.335-1.895 0.387v0c-1.235 0.091-2.322-0.054-3.263-0.438-0.941-0.383-1.686-1-2.236-1.851-0.557-0.857-0.883-1.927-0.979-3.209v0c-0.068-0.914 0.005-1.736 0.219-2.465 0.213-0.736 0.536-1.37 0.971-1.903 0.434-0.526 0.973-0.947 1.614-1.262 0.635-0.315 1.338-0.5 2.109-0.557v0c0.975-0.072 1.85 0.072 2.625 0.433 0.781 0.361 1.411 0.897 1.889 1.609 0.478 0.719 0.753 1.56 0.824 2.522v0c0.026 0.348-0.034 0.606-0.179 0.774-0.153 0.162-0.371 0.271-0.655 0.327v0z" fill="#ffffff" data-fill-palette-color="secondary"></path><path d="M168.431 263.818l0.564 2.712-1.889 0.393-0.535-2.572c-0.16-0.77-0.502-1.289-1.026-1.558-0.524-0.268-1.158-0.325-1.901-0.17v0c-0.489 0.102-0.944 0.28-1.366 0.535-0.423 0.249-0.771 0.51-1.042 0.783v0l0.837 4.028-1.888 0.393-0.819-3.938c-0.065-0.315-0.054-0.597 0.034-0.845 0.088-0.249 0.275-0.508 0.561-0.777v0c0.373-0.357 0.863-0.704 1.471-1.04 0.616-0.331 1.255-0.565 1.919-0.703v0c0.797-0.166 1.529-0.192 2.194-0.079 0.668 0.12 1.193 0.36 1.576 0.721v0c0.113 0.074 0.212 0.145 0.295 0.211 0.077 0.068 0.162 0.158 0.256 0.271v0c0.146 0.165 0.29 0.387 0.431 0.665 0.143 0.285 0.252 0.608 0.328 0.97zM175.352 262.431l0.554 2.662-1.889 0.393-0.534-2.572c-0.16-0.77-0.499-1.29-1.016-1.56-0.517-0.27-1.144-0.328-1.881-0.175v0c-0.549 0.114-1.058 0.339-1.526 0.674-0.462 0.334-0.852 0.757-1.172 1.271v0l-1.04-1.22c0.324-0.493 0.786-0.956 1.388-1.389 0.594-0.438 1.316-0.745 2.167-0.922v0c0.851-0.177 1.615-0.196 2.293-0.058 0.679 0.138 1.246 0.447 1.702 0.925 0.462 0.477 0.781 1.134 0.954 1.971zM159.925 267.116l1.889-0.393 1.255 6.038c-0.073 0.05-0.183 0.111-0.328 0.183-0.152 0.074-0.322 0.13-0.51 0.169v0c-0.328 0.068-0.593 0.053-0.795-0.044-0.202-0.098-0.334-0.297-0.397-0.599v0zM166.847 265.677l1.888-0.393 1.256 6.038c-0.073 0.05-0.19 0.113-0.349 0.188-0.159 0.075-0.322 0.13-0.49 0.164v0c-0.348 0.072-0.62 0.059-0.815-0.04-0.189-0.101-0.314-0.301-0.377-0.603v0zM173.758 264.24l1.889-0.393 1.255 6.038c-0.073 0.05-0.186 0.112-0.338 0.185-0.159 0.075-0.326 0.131-0.5 0.167v0c-0.348 0.072-0.617 0.058-0.806-0.042-0.195-0.099-0.324-0.299-0.386-0.601v0z" fill="#ffffff" data-fill-palette-color="secondary"></path><path d="M181.767 263.68l-0.604-1.397 6.504-3.404c-0.358-0.809-0.893-1.39-1.603-1.743-0.708-0.347-1.515-0.357-2.422-0.029v0c-0.933 0.338-1.583 0.952-1.952 1.842-0.373 0.899-0.332 1.975 0.122 3.23v0l0.182 0.501c0.545 1.163 1.276 1.935 2.192 2.317 0.914 0.375 1.966 0.346 3.156-0.085v0c0.637-0.231 1.175-0.542 1.615-0.934 0.438-0.399 0.763-0.775 0.977-1.129v0c0.207 0.049 0.384 0.126 0.532 0.233 0.148 0.107 0.254 0.25 0.319 0.43v0c0.105 0.289 0.042 0.618-0.188 0.985-0.237 0.37-0.596 0.725-1.076 1.066-0.484 0.35-1.058 0.645-1.721 0.885v0c-1.164 0.422-2.251 0.575-3.259 0.461-1.009-0.115-1.893-0.507-2.653-1.178-0.768-0.675-1.371-1.617-1.81-2.826v0c-0.312-0.862-0.464-1.673-0.455-2.432 0.006-0.766 0.146-1.464 0.42-2.095 0.276-0.624 0.681-1.174 1.213-1.651 0.527-0.474 1.153-0.843 1.88-1.106v0c0.92-0.333 1.801-0.431 2.644-0.292 0.85 0.136 1.601 0.482 2.254 1.039 0.655 0.563 1.147 1.298 1.475 2.204v0c0.119 0.328 0.131 0.593 0.037 0.795-0.103 0.197-0.284 0.361-0.543 0.491v0z" fill="#ffffff" data-fill-palette-color="secondary"></path><path d="M201.68 251.757l1.08 2.213-1.734 0.846-1.035-2.121c-0.396-0.811-0.913-1.294-1.55-1.447-0.638-0.153-1.338-0.044-2.101 0.329v0c-0.578 0.282-1.055 0.606-1.432 0.972-0.38 0.36-0.683 0.714-0.909 1.061v0l1.826 3.744-1.733 0.845-1.786-3.66c-0.147-0.301-0.207-0.58-0.181-0.837 0.027-0.257 0.146-0.551 0.358-0.882v0c0.273-0.407 0.674-0.858 1.201-1.352 0.525-0.5 1.178-0.94 1.959-1.321v0c1.309-0.639 2.492-0.843 3.548-0.612 1.047 0.227 1.877 0.968 2.489 2.222zM193.511 257.01l1.734-0.846 2.704 5.542c-0.059 0.067-0.15 0.153-0.273 0.259-0.13 0.109-0.28 0.205-0.453 0.289v0c-0.301 0.147-0.562 0.198-0.781 0.153-0.22-0.045-0.397-0.206-0.532-0.482v0zM200.446 253.626l1.733-0.846 2.705 5.542c-0.059 0.067-0.153 0.155-0.283 0.264-0.136 0.112-0.283 0.207-0.443 0.285v0c-0.32 0.156-0.583 0.208-0.791 0.157-0.214-0.048-0.388-0.21-0.523-0.487v0z" fill="#ffffff" data-fill-palette-color="secondary"></path><path d="M206.518 249.971l1.64-1.017 1.751 2.826c0.339 0.546 0.735 0.836 1.19 0.868 0.451 0.026 0.95-0.13 1.496-0.469v0c0.233-0.144 0.466-0.345 0.701-0.603 0.234-0.258 0.413-0.502 0.537-0.732v0c0.135 0.037 0.276 0.095 0.421 0.174 0.145 0.079 0.269 0.2 0.369 0.362v0c0.187 0.302 0.163 0.659-0.072 1.071-0.236 0.412-0.67 0.814-1.304 1.207v0c-0.953 0.591-1.858 0.858-2.714 0.802-0.856-0.057-1.589-0.576-2.198-1.559v0zM205.804 246.949l-0.838-1.352 4.159-2.579c0.073 0.027 0.17 0.092 0.29 0.195 0.116 0.097 0.216 0.212 0.299 0.346v0c0.137 0.221 0.188 0.427 0.153 0.617-0.035 0.191-0.148 0.345-0.34 0.464v0zM208.536 249.565l-1.639 1.016-4.596-7.412c0.046-0.069 0.131-0.166 0.255-0.291 0.124-0.125 0.267-0.238 0.429-0.339v0c0.285-0.177 0.536-0.252 0.754-0.225 0.217 0.026 0.407 0.17 0.569 0.431v0z" fill="#ffffff" data-fill-palette-color="secondary"></path><path d="M226.863 241.333v0c0.82-0.693 1.283-1.407 1.389-2.14 0.105-0.734-0.089-1.393-0.584-1.979v0c-0.428-0.507-0.943-0.788-1.546-0.843-0.607-0.061-1.341 0.108-2.205 0.507v0l-2.01 0.879c-0.649 0.271-1.27 0.442-1.864 0.514-0.593 0.072-1.151 0.005-1.672-0.199-0.512-0.203-0.982-0.558-1.41-1.065v0c-0.799-0.946-1.082-1.974-0.848-3.085 0.239-1.116 0.928-2.155 2.067-3.118v0c0.663-0.561 1.316-0.991 1.958-1.291 0.642-0.3 1.204-0.467 1.687-0.499 0.493-0.031 0.843 0.076 1.051 0.321v0c0.132 0.157 0.212 0.336 0.239 0.537 0.017 0.2-0.009 0.397-0.079 0.59v0c-0.516 0.015-1.112 0.147-1.788 0.396-0.677 0.259-1.324 0.649-1.94 1.17v0c-0.711 0.6-1.142 1.234-1.295 1.9-0.153 0.667-0.002 1.269 0.452 1.808v0c0.366 0.434 0.814 0.656 1.342 0.666 0.527 0.02 1.212-0.16 2.055-0.541v0l1.405-0.611c1.197-0.555 2.291-0.808 3.282-0.758 0.996 0.045 1.878 0.522 2.647 1.431v0c0.817 0.967 1.127 2.048 0.929 3.245-0.193 1.202-0.927 2.342-2.202 3.419v0c-0.752 0.636-1.476 1.104-2.171 1.405-0.7 0.305-1.313 0.465-1.839 0.479-0.525 0.014-0.892-0.102-1.099-0.347v0c-0.177-0.209-0.259-0.439-0.248-0.691 0.006-0.247 0.069-0.475 0.189-0.683v0c0.512 0.033 1.137-0.038 1.874-0.214 0.737-0.166 1.482-0.567 2.234-1.203z" fill="#ffffff" data-fill-palette-color="secondary"></path><path d="M235.125 231.932v0c-0.561-0.154-1.29-0.394-2.189-0.719-0.904-0.32-1.891-0.705-2.963-1.155-1.062-0.451-2.132-0.928-3.21-1.432v0c-0.034-0.193-0.025-0.391 0.028-0.596 0.058-0.2 0.159-0.377 0.305-0.53v0c0.184-0.194 0.391-0.303 0.623-0.329 0.227-0.03 0.502 0.028 0.825 0.174v0c1.307 0.58 2.628 1.135 3.963 1.666 1.33 0.536 2.735 1.062 4.215 1.579v0l0.071-0.074c-0.256-0.704-0.624-1.539-1.104-2.504-0.48-0.965-1.015-1.957-1.603-2.977-0.579-1.02-1.155-1.953-1.73-2.799v0c0.045-0.117 0.1-0.24 0.165-0.367 0.064-0.128 0.151-0.248 0.259-0.363v0c0.188-0.199 0.393-0.315 0.615-0.35 0.222-0.035 0.432 0.042 0.63 0.23v0c0.189 0.179 0.452 0.527 0.79 1.046 0.338 0.518 0.708 1.142 1.109 1.872 0.411 0.729 0.827 1.519 1.246 2.37 0.419 0.85 0.81 1.711 1.172 2.581 0.367 0.866 0.669 1.676 0.906 2.429v0c0.484 1.477 0.778 2.689 0.88 3.635 0.112 0.945-0.008 1.604-0.361 1.976v0c-0.254 0.268-0.519 0.408-0.794 0.421-0.28 0.017-0.531-0.046-0.753-0.191v0c0.026-0.465 0.007-1.031-0.059-1.697-0.061-0.671-0.164-1.358-0.309-2.06-0.144-0.703-0.321-1.327-0.529-1.873v0c-0.248 0.142-0.529 0.225-0.843 0.247-0.309 0.028-0.761-0.043-1.355-0.21z" fill="#ffffff" data-fill-palette-color="secondary"></path><path d="M247.159 216.929v0c0.809 0.631 1.212 1.421 1.208 2.372-0.008 0.956-0.451 1.998-1.33 3.126v0c-0.748 0.96-1.511 1.628-2.289 2.002-0.772 0.378-1.336 0.429-1.692 0.152v0c-0.151-0.118-0.268-0.274-0.35-0.468-0.078-0.2-0.098-0.414-0.058-0.644v0c0.506-0.16 1.039-0.387 1.597-0.681 0.557-0.303 1.063-0.746 1.517-1.328v0c1.026-1.317 1.096-2.32 0.211-3.009v0c-0.367-0.286-0.755-0.411-1.165-0.375-0.404 0.04-0.826 0.237-1.265 0.588v0l-1.651 1.251c-0.79 0.624-1.524 0.959-2.2 1.004-0.677 0.045-1.312-0.164-1.905-0.626v0c-0.674-0.526-1.045-1.252-1.111-2.18-0.072-0.932 0.328-1.956 1.197-3.073v0c0.462-0.594 0.928-1.068 1.396-1.423 0.469-0.346 0.897-0.567 1.284-0.664 0.383-0.091 0.691-0.047 0.924 0.134v0c0.162 0.126 0.276 0.28 0.342 0.462 0.061 0.178 0.069 0.362 0.025 0.552v0c-0.22 0.071-0.482 0.179-0.786 0.324-0.299 0.14-0.616 0.335-0.951 0.586-0.325 0.25-0.636 0.566-0.935 0.95v0c-0.433 0.556-0.676 1.09-0.729 1.604-0.049 0.508 0.123 0.916 0.517 1.222v0c0.275 0.214 0.594 0.306 0.955 0.276 0.366-0.036 0.766-0.227 1.201-0.573v0l1.352-1.067c0.868-0.702 1.689-1.099 2.462-1.19 0.773-0.091 1.516 0.141 2.229 0.696z" fill="#ffffff" data-fill-palette-color="secondary"></path><path d="M246.95 211.124l1.05-1.618 2.789 1.81c0.539 0.35 1.021 0.443 1.446 0.278 0.419-0.168 0.804-0.522 1.154-1.061v0c0.149-0.23 0.275-0.511 0.376-0.845 0.102-0.333 0.16-0.63 0.174-0.89v0c0.138-0.024 0.29-0.032 0.456-0.022 0.165 0.009 0.328 0.066 0.488 0.17v0c0.298 0.194 0.429 0.527 0.391 1-0.038 0.473-0.26 1.022-0.666 1.647v0c-0.611 0.941-1.316 1.568-2.114 1.882-0.799 0.313-1.683 0.155-2.652-0.474v0zM245.016 208.694l-1.334-0.866 2.665-4.105c0.078-0.007 0.193 0.011 0.345 0.053 0.147 0.038 0.286 0.1 0.418 0.185v0c0.218 0.142 0.352 0.306 0.401 0.494 0.05 0.187 0.013 0.376-0.109 0.564v0zM248.603 209.897l-1.051 1.618-7.315-4.749c0.012-0.082 0.048-0.205 0.106-0.371 0.059-0.166 0.14-0.329 0.245-0.489v0c0.182-0.281 0.378-0.456 0.585-0.526 0.208-0.069 0.441-0.02 0.699 0.148v0z" fill="#ffffff" data-fill-palette-color="secondary"></path><path d="M254.451 202.491l-1.391-0.617 2.472-6.912c-0.812-0.351-1.599-0.416-2.361-0.194-0.756 0.225-1.356 0.765-1.799 1.621v0c-0.456 0.881-0.518 1.773-0.185 2.678 0.336 0.913 1.096 1.677 2.28 2.29v0l0.473 0.246c1.189 0.485 2.25 0.557 3.182 0.215 0.926-0.345 1.68-1.079 2.262-2.202v0c0.312-0.601 0.496-1.195 0.553-1.782 0.051-0.59 0.035-1.087-0.047-1.492v0c0.185-0.104 0.368-0.168 0.549-0.19 0.181-0.022 0.356 0.011 0.526 0.1v0c0.273 0.142 0.45 0.426 0.529 0.852 0.076 0.432 0.054 0.937-0.067 1.513-0.119 0.586-0.34 1.191-0.664 1.817v0c-0.57 1.099-1.264 1.949-2.084 2.549-0.819 0.6-1.736 0.911-2.748 0.934-1.022 0.025-2.104-0.258-3.246-0.85v0c-0.814-0.422-1.475-0.915-1.984-1.479-0.515-0.567-0.886-1.175-1.112-1.824-0.22-0.646-0.296-1.324-0.228-2.036 0.065-0.706 0.276-1.402 0.631-2.088v0c0.45-0.869 1.032-1.538 1.745-2.008 0.717-0.476 1.503-0.731 2.361-0.765 0.863-0.03 1.723 0.176 2.579 0.62v0c0.31 0.16 0.498 0.347 0.566 0.559 0.058 0.215 0.036 0.458-0.066 0.729v0z" fill="#ffffff" data-fill-palette-color="secondary"></path><path d="M260.164 180.649l2.606 0.942-0.656 1.814-2.471-0.893c-0.74-0.267-1.361-0.248-1.864 0.057-0.503 0.305-0.884 0.815-1.142 1.529v0c-0.17 0.47-0.257 0.951-0.26 1.444-0.01 0.491 0.03 0.924 0.12 1.298v0l3.869 1.399-0.656 1.814-3.782-1.367c-0.302-0.109-0.536-0.267-0.703-0.472-0.166-0.205-0.288-0.501-0.367-0.886v0c-0.108-0.505-0.146-1.104-0.114-1.798 0.041-0.698 0.177-1.365 0.408-2.002v0c0.277-0.765 0.638-1.402 1.083-1.91 0.452-0.506 0.932-0.827 1.44-0.964v0c0.123-0.058 0.234-0.104 0.334-0.141 0.098-0.03 0.22-0.055 0.366-0.075v0c0.217-0.038 0.481-0.044 0.792-0.019 0.317 0.027 0.65 0.104 0.997 0.23zM262.613 174.028l2.557 0.924-0.656 1.814-2.47-0.893c-0.74-0.267-1.36-0.252-1.861 0.047-0.501 0.299-0.879 0.802-1.135 1.51v0c-0.191 0.527-0.266 1.078-0.227 1.653 0.042 0.568 0.198 1.123 0.468 1.664v0l-1.584 0.246c-0.251-0.534-0.402-1.171-0.455-1.911-0.062-0.735 0.055-1.511 0.351-2.328v0c0.295-0.817 0.68-1.478 1.153-1.983 0.474-0.505 1.033-0.827 1.68-0.964 0.648-0.144 1.375-0.07 2.179 0.221zM258.514 189.621l0.655-1.815 5.8 2.097c0.004 0.089-0.001 0.214-0.016 0.376-0.017 0.168-0.058 0.343-0.124 0.523v0c-0.114 0.315-0.266 0.533-0.455 0.654-0.189 0.121-0.428 0.129-0.717 0.024v0zM260.917 182.972l0.656-1.814 5.799 2.097c0.004 0.089-0.003 0.221-0.023 0.395-0.02 0.175-0.058 0.343-0.116 0.504v0c-0.121 0.335-0.275 0.559-0.462 0.673-0.184 0.108-0.421 0.109-0.711 0.005v0zM263.317 176.334l0.656-1.814 5.799 2.096c0.004 0.089-0.002 0.217-0.019 0.386-0.02 0.175-0.06 0.346-0.12 0.513v0c-0.121 0.335-0.274 0.556-0.458 0.663-0.187 0.114-0.425 0.119-0.715 0.015v0z" fill="#ffffff" data-fill-palette-color="secondary"></path></g></svg></g></svg></g></svg></g></svg></g><defs></defs></svg><rect width="279.72" height="279.72" fill="none" stroke="none" visibility="hidden"></rect></g></svg></g></svg>