<svg xmlns="http://www.w3.org/2000/svg" version="1.1" xmlns:xlink="http://www.w3.org/1999/xlink" xmlns:svgjs="http://svgjs.dev/svgjs" width="2000" height="1500" viewBox="0 0 2000 1500"><rect width="2000" height="1500" fill="#000000"></rect><g transform="matrix(0.75,0,0,0.75,249.67638483964993,0.05154664723022506)"><svg viewBox="0 0 343 343" data-background-color="#ffffff" preserveAspectRatio="xMidYMid meet" height="1999" width="2000" xmlns="http://www.w3.org/2000/svg" xmlns:xlink="http://www.w3.org/1999/xlink"><g id="tight-bounds" transform="matrix(1,0,0,1,0.0740000000000407,0.07400000000001228)"><svg viewBox="0 0 342.85155851775386 342.85155851775386" height="342.85155851775386" width="342.85155851775386"><g><svg></svg></g><g><svg viewBox="0 0 342.85155851775386 342.85155851775386" height="342.85155851775386" width="342.85155851775386"><g><path d="M0 171.426c0-94.676 76.75-171.426 171.426-171.426 94.676 0 171.426 76.75 171.426 171.426 0 94.676-76.75 171.426-171.426 171.426-94.676 0-171.426-76.75-171.426-171.426zM171.426 339.887c93.039 0 168.461-75.423 168.461-168.461 0-93.039-75.423-168.461-168.461-168.462-93.039 0-168.461 75.423-168.462 168.462 0 93.039 75.423 168.461 168.462 168.461z" data-fill-palette-color="tertiary" fill="#ffffff" stroke="transparent"></path><ellipse rx="164.56874808852186" ry="164.56874808852186" cx="171.42577925887693" cy="171.42577925887693" fill="#ffffff" stroke="transparent" stroke-width="0" fill-opacity="1" data-fill-palette-color="tertiary"></ellipse></g><g transform="matrix(1,0,0,1,64.84655864529837,95.27150375190708)"><svg viewBox="0 0 213.1584412271571 152.3085510139397" height="152.3085510139397" width="213.1584412271571"><g><svg viewBox="0 0 213.1584412271571 152.3085510139397" height="152.3085510139397" width="213.1584412271571"><g><svg viewBox="0 0 213.1584412271571 152.3085510139397" height="152.3085510139397" width="213.1584412271571"><g transform="matrix(1,0,0,1,0,91.62494958619915)"><svg viewBox="0 0 213.1584412271571 60.683601427740555" height="60.683601427740555" width="213.1584412271571"><g id="textblocktransform"><svg viewBox="0 0 213.1584412271571 60.683601427740555" height="60.683601427740555" width="213.1584412271571" id="textblock"><g><svg viewBox="0 0 213.1584412271571 32.87167019545271" height="32.87167019545271" width="213.1584412271571"><g transform="matrix(1,0,0,1,0,0)"><svg width="213.1584412271571" viewBox="1.65 -36.85 241.53 37.25" height="32.87167019545271" data-palette-color="#ffffff"><path d="M9.5 0L5.25 0 5.25-35.85 8.85-35.85Q9.5-35.85 9.83-35.73 10.15-35.6 10.5-35L10.5-35 22.9-12.95Q23.3-12.3 23.53-11.68 23.75-11.05 24-10.35L24-10.35Q24.25-11 24.53-11.68 24.8-12.35 25.15-13L25.15-13 37.3-35Q37.65-35.6 37.98-35.73 38.3-35.85 38.95-35.85L38.95-35.85 42.55-35.85 42.55 0 38.3 0 38.3-26.35Q38.3-26.85 38.33-27.45 38.35-28.05 38.4-28.7L38.4-28.7 26.1-6.3Q25.5-5.15 24.35-5.15L24.35-5.15 23.65-5.15Q22.55-5.15 21.9-6.3L21.9-6.3 9.35-28.75Q9.45-28.1 9.47-27.48 9.5-26.85 9.5-26.35L9.5-26.35 9.5 0ZM6.75 0L1.65 0 1.65-2.05Q1.65-2.5 1.85-2.78 2.05-3.05 2.45-3.1L2.45-3.1 6.2-3.9 6.75 0ZM13.6 0L8.5 0 9.05-3.9 12.8-3.1Q13.2-3.05 13.4-2.78 13.6-2.5 13.6-2.05L13.6-2.05 13.6 0ZM1.65-35.85L6.75-35.85 6.2-31.95 2.45-32.75Q2.05-32.85 1.85-33.1 1.65-33.35 1.65-33.8L1.65-33.8 1.65-35.85ZM39.3 0L34.2 0 34.2-2.05Q34.2-2.5 34.4-2.78 34.6-3.05 35-3.1L35-3.1 38.75-3.9 39.3 0ZM46.15 0L41.05 0 41.6-3.9 45.35-3.1Q45.75-3.05 45.95-2.78 46.15-2.5 46.15-2.05L46.15-2.05 46.15 0ZM41.05-35.85L46.15-35.85 46.15-33.8Q46.15-33.35 45.95-33.1 45.75-32.85 45.35-32.75L45.35-32.75 41.6-31.95 41.05-35.85ZM61.6 0.35L61.6 0.35Q57.95 0.35 55.22-1.3 52.5-2.95 51-6 49.5-9.05 49.5-13.2L49.5-13.2Q49.5-16.75 50.95-19.6 52.4-22.45 55.07-24.1 57.75-25.75 61.35-25.75L61.35-25.75Q64.5-25.75 66.85-24.35 69.2-22.95 70.52-20.43 71.85-17.9 71.85-14.4L71.85-14.4Q71.85-13.35 71.62-13 71.4-12.65 70.75-12.65L70.75-12.65 53.9-12.65Q53.9-12.5 53.9-12.33 53.9-12.15 53.9-12L53.9-12Q54.15-7.8 56.25-5.48 58.35-3.15 61.95-3.15L61.95-3.15Q63.5-3.15 65.02-3.78 66.55-4.4 67.72-5 68.9-5.6 69.4-5.6L69.4-5.6Q69.95-5.6 70.25-5.2L70.25-5.2 71.5-3.55Q70.5-2.25 68.82-1.38 67.15-0.5 65.25-0.08 63.35 0.35 61.6 0.35ZM54.05-15.45L54.05-15.45 67.85-15.45Q67.85-18.55 66.15-20.5 64.45-22.45 61.45-22.45L61.45-22.45Q58.2-22.45 56.35-20.6 54.5-18.75 54.05-15.45ZM84.85 0.35L84.85 0.35Q81.75 0.35 79.6-1.25 77.45-2.85 76.35-5.78 75.25-8.7 75.25-12.6L75.25-12.6Q75.25-16.3 76.55-19.28 77.85-22.25 80.32-24.03 82.8-25.8 86.2-25.8L86.2-25.8Q88.55-25.8 90.2-25 91.85-24.2 93.15-22.8L93.15-22.8 93.15-36.85 97.6-36.85 97.6 0 94.95 0Q93.95 0 93.75-0.95L93.75-0.95 93.35-4Q91.7-2.05 89.62-0.85 87.55 0.35 84.85 0.35ZM86.3-3.25L86.3-3.25Q88.5-3.25 90.12-4.25 91.75-5.25 93.15-7.1L93.15-7.1 93.15-19.35Q91.9-21 90.45-21.65 89-22.3 87.2-22.3L87.2-22.3Q84.85-22.3 83.2-21.18 81.55-20.05 80.7-17.88 79.85-15.7 79.85-12.6L79.85-12.6Q79.85-8.05 81.4-5.65 82.95-3.25 86.3-3.25ZM89.55-36.85L94.65-36.85 94.1-32.95 90.35-33.75Q89.95-33.85 89.75-34.1 89.55-34.35 89.55-34.8L89.55-34.8 89.55-36.85ZM101.2 0L96.1 0 96.65-3.9 100.4-3.1Q100.8-3.05 101-2.78 101.2-2.5 101.2-2.05L101.2-2.05 101.2 0ZM111.54 0L107.09 0 107.09-25.35 111.54-25.35 111.54 0ZM108.59 0L103.49 0 103.49-2.05Q103.49-2.5 103.69-2.78 103.89-3.05 104.29-3.1L104.29-3.1 108.04-3.9 108.59 0ZM115.14 0L110.04 0 110.59-3.9 114.34-3.1Q114.74-3.05 114.94-2.78 115.14-2.5 115.14-2.05L115.14-2.05 115.14 0ZM103.49-25.35L108.59-25.35 108.04-21.45 104.29-22.25Q103.89-22.35 103.69-22.6 103.49-22.85 103.49-23.3L103.49-23.3 103.49-25.35ZM109.24-30.15L109.24-30.15Q107.99-30.15 107.04-31.1 106.09-32.05 106.09-33.3L106.09-33.3Q106.09-34.6 107.04-35.55 107.99-36.5 109.24-36.5L109.24-36.5Q110.54-36.5 111.49-35.55 112.44-34.6 112.44-33.3L112.44-33.3Q112.44-32.05 111.49-31.1 110.54-30.15 109.24-30.15ZM133.24 0L128.39 0 128.39-31.75 116.74-31.75 116.74-35.85 144.79-35.85 144.79-31.75 133.24-31.75 133.24 0ZM129.89 0L124.79 0 124.79-2.05Q124.79-2.5 124.99-2.78 125.19-3.05 125.59-3.1L125.59-3.1 129.34-3.9 129.89 0ZM136.84 0L131.74 0 132.29-3.9 136.04-3.1Q136.44-3.05 136.64-2.78 136.84-2.5 136.84-2.05L136.84-2.05 136.84 0ZM141.44-28L140.69-33 144.79-31.75 144.79-27.2 142.49-27.2Q142.09-27.2 141.82-27.38 141.54-27.55 141.44-28L141.44-28ZM116.74-31.75L120.84-33 120.09-28Q120.04-27.55 119.74-27.38 119.44-27.2 119.04-27.2L119.04-27.2 116.74-27.2 116.74-31.75ZM155.19 0L150.74 0 150.74-25.35 153.29-25.35Q154.04-25.35 154.34-25.08 154.64-24.8 154.69-24.1L154.69-24.1 154.99-20.15Q156.29-22.8 158.19-24.3 160.09-25.8 162.69-25.8L162.69-25.8Q163.74-25.8 164.59-25.55 165.44-25.3 166.14-24.9L166.14-24.9 165.59-21.55Q165.54-21.25 165.31-21.1 165.09-20.95 164.79-20.95L164.79-20.95Q164.44-20.95 163.44-21.18 162.44-21.4 161.69-21.4L161.69-21.4Q159.39-21.4 157.81-20.05 156.24-18.7 155.19-16.15L155.19-16.15 155.19 0ZM158.79 0L153.69 0 154.24-3.9 157.99-3.1Q158.39-3.05 158.59-2.78 158.79-2.5 158.79-2.05L158.79-2.05 158.79 0ZM152.24 0L147.14 0 147.14-2.05Q147.14-2.5 147.34-2.78 147.54-3.05 147.94-3.1L147.94-3.1 151.69-3.9 152.24 0ZM147.14-25.35L152.24-25.35 151.69-21.45 147.94-22.25Q147.54-22.35 147.34-22.6 147.14-22.85 147.14-23.3L147.14-23.3 147.14-25.35ZM174.79 0.4L174.79 0.4Q172.79 0.4 171.19-0.38 169.59-1.15 168.64-2.65 167.69-4.15 167.69-6.35L167.69-6.35Q167.69-7.85 168.51-9.22 169.34-10.6 171.19-11.7L171.19-11.7Q173.04-12.75 176.01-13.45 178.99-14.15 183.29-14.25L183.29-14.25 183.29-16.2Q183.29-19.15 182.01-20.68 180.74-22.2 178.29-22.2L178.29-22.2Q176.99-22.2 175.56-21.53 174.14-20.85 172.94-20.18 171.74-19.5 171.04-19.5L171.04-19.5Q170.59-19.5 170.26-19.75 169.94-20 169.74-20.35L169.74-20.35 168.94-21.75Q171.04-23.8 173.46-24.8 175.89-25.8 178.84-25.8L178.84-25.8Q181.69-25.8 183.64-24.6 185.59-23.4 186.61-21.25 187.64-19.1 187.64-16.2L187.64-16.2 187.64 0 185.69 0Q185.04 0 184.64-0.2 184.24-0.4 184.09-1.05L184.09-1.05 183.59-3.4Q181.59-1.6 179.59-0.6 177.59 0.4 174.79 0.4ZM176.09-2.75L176.09-2.75Q178.34-2.75 180.04-3.65 181.74-4.55 183.29-6.15L183.29-6.15 183.29-11.4Q180.69-11.35 178.59-11.03 176.49-10.7 175.01-10.13 173.54-9.55 172.76-8.68 171.99-7.8 171.99-6.55L171.99-6.55Q171.99-4.55 173.16-3.65 174.34-2.75 176.09-2.75ZM191.24 0L186.14 0 186.69-3.9 190.44-3.1Q190.84-3.05 191.04-2.78 191.24-2.5 191.24-2.05L191.24-2.05 191.24 0ZM204.78 0.35L204.78 0.35Q201.48 0.35 198.96-1.28 196.43-2.9 195.01-5.85 193.58-8.8 193.58-12.7L193.58-12.7Q193.58-16.5 194.93-19.45 196.28-22.4 198.93-24.08 201.58-25.75 205.53-25.75L205.53-25.75Q207.08-25.75 209.13-25.23 211.18-24.7 213.03-23.95L213.03-23.95 213.03-21.25 210.43-21.4Q209.43-21.75 208.31-22 207.18-22.25 205.78-22.25L205.78-22.25Q203.23-22.25 201.56-21.08 199.88-19.9 199.03-17.75 198.18-15.6 198.18-12.7L198.18-12.7Q198.18-8.35 200.08-5.73 201.98-3.1 205.53-3.1L205.53-3.1Q207.48-3.1 208.73-3.73 209.98-4.35 210.78-4.98 211.58-5.6 212.03-5.6L212.03-5.6Q212.28-5.6 212.51-5.5 212.73-5.4 212.88-5.2L212.88-5.2 214.13-3.55Q212.48-1.55 210.03-0.6 207.58 0.35 204.78 0.35ZM210.33-18.15L209.83-21.9 213.03-21.25 213.03-17.35 211.38-17.35Q210.88-17.35 210.63-17.57 210.38-17.8 210.33-18.15L210.33-18.15ZM224.98 0L220.53 0 220.53-36.85 224.98-36.85 224.98-15.15 226.13-15.15Q226.63-15.15 226.98-15.3 227.33-15.45 227.68-15.85L227.68-15.85 235.68-24.45Q236.08-24.85 236.43-25.1 236.78-25.35 237.43-25.35L237.43-25.35 241.48-25.35 232.13-15.4Q231.78-15.05 231.46-14.7 231.13-14.35 230.68-14.1L230.68-14.1Q231.53-13.5 232.18-12.5L232.18-12.5 242.08 0 238.08 0Q237.53 0 237.18-0.23 236.83-0.45 236.43-0.9L236.43-0.9 228.08-11.25Q227.73-11.8 227.36-11.95 226.98-12.1 226.23-12.1L226.23-12.1 224.98-12.1 224.98 0ZM237.03-21.45L236.33-21.3 235.28-22.95 235.28-25.35 241.08-25.35 237.03-21.45ZM238.63-3.9L238.08 0 235.68-4.55 238.63-3.9ZM222.03 0L216.93 0 216.93-2.05Q216.93-2.5 217.13-2.78 217.33-3.05 217.73-3.1L217.73-3.1 221.48-3.9 222.03 0ZM228.58 0L223.48 0 224.03-3.9 227.78-3.1Q228.18-3.05 228.38-2.78 228.58-2.5 228.58-2.05L228.58-2.05 228.58 0ZM216.93-36.85L222.03-36.85 221.48-32.95 217.73-33.75Q217.33-33.85 217.13-34.1 216.93-34.35 216.93-34.8L216.93-34.8 216.93-36.85ZM236.48-25.35L241.58-25.35 241.58-23.3Q241.58-22.85 241.38-22.6 241.18-22.35 240.78-22.25L240.78-22.25 237.03-21.45 236.48-25.35ZM231.33-25.35L236.43-25.35 235.88-21.45 232.13-22.25Q231.73-22.35 231.53-22.6 231.33-22.85 231.33-23.3L231.33-23.3 231.33-25.35ZM243.18 0L238.08 0 238.63-3.9 242.38-3.1Q242.78-3.05 242.98-2.78 243.18-2.5 243.18-2.05L243.18-2.05 243.18 0Z" opacity="1" transform="matrix(1,0,0,1,0,0)" fill="#000000" class="wordmark-text-0" data-fill-palette-color="quaternary" id="text-0"></path></svg></g></svg></g><g transform="matrix(1,0,0,1,0,40.6318826085144)"><svg viewBox="0 0 213.1584412271571 20.051718819226153" height="20.051718819226153" width="213.1584412271571"><g transform="matrix(1,0,0,1,0,0)"><svg width="213.1584412271571" viewBox="-0.1 -33.5 499.1 46.95" height="20.051718819226153" data-palette-color="#ffffff"><path d="M58.65 11.45L58.65 11.45Q57.4 11.45 55.98 10.83 54.55 10.2 53.63 8.97 52.7 7.75 52.8 6L52.8 6Q52.85 4.95 53.03 3.93 53.2 2.9 53.83 1.45 54.45 0 55.83-2.33 57.2-4.65 59.68-8.25 62.15-11.85 66-17.25L66-17.25Q67.85-19.8 68.6-21.45 69.35-23.1 69.35-24.05L69.35-24.05Q69.35-24.85 68.9-25.2 68.45-25.55 67.75-25.55L67.75-25.55Q66.75-25.55 65.38-24.95 64-24.35 62.75-23.4L62.75-23.4Q60.4-21.65 57.95-19.43 55.5-17.2 53.2-14.85 50.9-12.5 48.9-10.3L48.9-10.3Q47.25-7.65 45.8-5.48 44.35-3.3 43.7-2.35L43.7-2.35Q43.5-2 43.08-1.85 42.65-1.7 42.25-1.7L42.25-1.7Q41.55-1.7 41-2.08 40.45-2.45 40.75-3L40.75-3Q40.75-3 41.35-4.05 41.95-5.1 42.93-6.85 43.9-8.6 45.03-10.7 46.15-12.8 47.2-14.88 48.25-16.95 49.03-18.7 49.8-20.45 50.05-21.45L50.05-21.45Q50.35-22.75 50.35-23.85L50.35-23.85Q50.35-24.95 49.95-25.63 49.55-26.3 48.55-26.3L48.55-26.3Q47.9-26.3 46.9-25.9 45.9-25.5 44.55-24.65L44.55-24.65Q42.25-23.15 39.38-20.73 36.5-18.3 33.43-15.33 30.35-12.35 27.33-9.22 24.3-6.1 21.7-3.15L21.7-3.15Q21.55-3 21.35-3L21.35-3Q19.45-0.55 18.53 0.2 17.6 0.95 17.6 0.5L17.6 0.5Q17.6-0.5 20.35-3.95L20.35-3.95Q22.5-6.6 24.98-9.58 27.45-12.55 29.63-15.5 31.8-18.45 33.1-21L33.1-21Q34.4-23.55 34.4-25.3L34.4-25.3Q34.4-27.65 32.48-28.55 30.55-29.45 27.6-29.45L27.6-29.45Q25.25-29.45 22.58-29.03 19.9-28.6 17.28-27.98 14.65-27.35 12.45-26.68 10.25-26 8.9-25.55L8.9-25.55Q6.7-24.8 4.85-23.95 3-23.1 1.93-22.23 0.85-21.35 0.85-20.45L0.85-20.45Q0.85-19.6 2-18.8L2-18.8Q2.1-18.75 2.1-18.65L2.1-18.65Q2.1-18.55 1.85-18.55L1.85-18.55Q1.6-18.55 1.35-18.7L1.35-18.7Q-0.1-19.7-0.1-21.6L-0.1-21.6Q-0.1-23 0.85-24.55 1.8-26.1 3.8-27.2L3.8-27.2Q6.35-28.65 9.5-29.83 12.65-31 16-31.83 19.35-32.65 22.63-33.08 25.9-33.5 28.7-33.5L28.7-33.5Q32.4-33.5 34.52-32.75 36.65-32 37.55-30.7 38.45-29.4 38.45-27.8L38.45-27.8Q38.45-25.65 37.18-23.25 35.9-20.85 34.35-18.95L34.35-18.95Q32.95-17.25 30.78-14.7 28.6-12.15 26.5-9.55L26.5-9.55Q29.55-12.75 32.7-15.8 35.85-18.85 38.8-21.35 41.75-23.85 44.1-25.4L44.1-25.4Q46.65-27.05 48.58-27.78 50.5-28.5 51.85-28.5L51.85-28.5Q53.75-28.5 54.58-27.35 55.4-26.2 55.4-24.5L55.4-24.5Q55.4-22.7 54.55-20.6L54.55-20.6Q54-19.25 53.1-17.53 52.2-15.8 51.1-13.95L51.1-13.95Q53.7-16.65 56.63-19.35 59.55-22.05 62.3-24.1L62.3-24.1Q64.7-25.85 67.35-27 70-28.15 71.85-28.15L71.85-28.15Q72.95-28.15 73.6-27.68 74.25-27.2 74.25-26.15L74.25-26.15Q74.25-25.25 73.65-23.85 73.05-22.45 71.75-20.5L71.75-20.5Q66.65-12.95 63.48-7.53 60.3-2.1 58.8 1.5 57.3 5.1 57.1 7.25L57.1 7.25Q57.05 7.5 57.05 7.75 57.05 8 57.05 8.25L57.05 8.25Q57.05 9.65 57.53 10.23 58 10.8 58.6 10.8L58.6 10.8Q59.35 10.8 60 10.25L60 10.25Q60.2 10.15 60.25 10.15L60.25 10.15Q60.5 10.15 60.65 10.4 60.8 10.65 60.55 10.9L60.55 10.9Q59.85 11.45 58.65 11.45ZM73.09 0.5L73.09 0.5Q70.89 0.5 69.42-0.58 67.94-1.65 67.94-3.7L67.94-3.7Q67.94-5.9 68.99-7.8 70.04-9.7 71.79-11.13 73.54-12.55 75.62-13.35 77.69-14.15 79.74-14.15L79.74-14.15Q81.79-14.15 82.79-13.43 83.79-12.7 83.79-11.65L83.79-11.65Q83.79-10.65 82.87-9.53 81.94-8.4 80.19-7.55L80.19-7.55Q79.09-7.05 77.67-6.68 76.24-6.3 75.19-6.3L75.19-6.3Q74.39-6.3 74.39-6.55L74.39-6.55Q74.39-6.75 75.09-6.75L75.09-6.75Q75.74-6.75 77.12-7.13 78.49-7.5 79.79-8.15L79.79-8.15Q81.24-8.95 81.84-9.75 82.44-10.55 82.44-11.2L82.44-11.2Q82.44-11.8 81.97-12.2 81.49-12.6 80.64-12.6L80.64-12.6Q79.84-12.6 78.84-12.15L78.84-12.15Q77.39-11.5 75.87-10.03 74.34-8.55 73.34-6.8 72.34-5.05 72.34-3.45L72.34-3.45Q72.34-2.35 72.97-1.6 73.59-0.85 74.84-0.85L74.84-0.85Q76.14-0.85 77.84-1.68 79.54-2.5 81.29-3.73 83.04-4.95 84.54-6.2 86.04-7.45 86.94-8.3L86.94-8.3Q87.24-8.6 87.39-8.6L87.39-8.6Q87.54-8.6 87.54-8.35L87.54-8.35Q87.54-8 87.24-7.75L87.24-7.75Q85.34-6 83.12-4.1 80.89-2.2 78.37-0.88 75.84 0.45 73.09 0.5ZM101.39 4.4L101.39 4.4Q100.59 3.7 100.21 2.63 99.84 1.55 99.84 0.2L99.84 0.2Q99.84-1.05 100.11-2.45 100.39-3.85 100.84-5.4L100.84-5.4Q99.89-4.2 98.71-2.95 97.54-1.7 96.49-0.8L96.49-0.8Q94.39 0.9 91.94 0.9L91.94 0.9Q90.09 0.9 88.79-0.28 87.49-1.45 87.49-3.95L87.49-3.95Q87.49-4.6 87.61-5.2 87.74-5.8 87.94-6.4L87.94-6.4Q87.64-6.15 87.36-5.9 87.09-5.65 86.84-5.45L86.84-5.45Q86.64-5.3 86.44-5.3L86.44-5.3Q86.19-5.3 86.19-5.55L86.19-5.55Q86.19-5.85 86.69-6.25L86.69-6.25Q87.34-6.8 88.16-7.75 88.99-8.7 89.99-9.8L89.99-9.8Q91.74-11.75 94.26-12.95 96.79-14.15 99.24-14.15L99.24-14.15Q101.34-14.15 102.31-13.4 103.29-12.65 103.29-11.6L103.29-11.6Q104.54-14.25 105.91-16.68 107.29-19.1 108.51-20.95 109.74-22.8 110.54-23.7L110.54-23.7Q111.09-24.35 111.91-24.65 112.74-24.95 113.59-24.95L113.59-24.95Q114.44-24.95 115.24-24.7 116.04-24.45 116.64-23.9L116.64-23.9Q116.14-23.6 115.06-22.48 113.99-21.35 112.61-19.7 111.24-18.05 109.76-16.15 108.29-14.25 106.99-12.35L106.99-12.35Q105.44-10.1 104.06-7.5 102.69-4.9 101.84-2.48 100.99-0.05 100.99 1.8L100.99 1.8Q100.99 3.3 101.64 4.1L101.64 4.1Q101.79 4.3 101.64 4.38 101.49 4.45 101.39 4.4ZM93.49-0.8L93.49-0.8Q94.39-0.8 95.89-1.73 97.39-2.65 99.59-4.9L99.59-4.9Q100.29-5.6 100.71-6.13 101.14-6.65 101.44-7.15L101.44-7.15Q101.69-7.85 101.94-8.5 102.19-9.15 102.49-9.8L102.49-9.8Q102.19-9.6 102.04-9.6L102.04-9.6Q101.64-9.6 101.64-10.05L101.64-10.05Q101.64-10.25 101.79-10.55L101.79-10.55Q102.29-11.4 102.29-12.05L102.29-12.05Q102.29-13.1 101.09-13.1L101.09-13.1Q100.44-13.1 99.34-12.7L99.34-12.7Q98.09-12.2 96.76-11.18 95.44-10.15 94.31-8.78 93.19-7.4 92.51-5.95 91.84-4.5 91.84-3.2L91.84-3.2Q91.84-2.25 92.21-1.53 92.59-0.8 93.49-0.8ZM120.78-15.3L120.78-15.3Q120.08-15.3 119.73-15.75 119.38-16.2 119.38-16.7L119.38-16.7Q119.38-17.7 120.33-18.68 121.28-19.65 122.33-19.65L122.33-19.65Q123.03-19.65 123.38-19.2 123.73-18.75 123.73-18.25L123.73-18.25Q123.73-17.2 122.8-16.25 121.88-15.3 120.78-15.3ZM113.13 0.05L113.13 0.05Q111.08 0.05 110.35-0.83 109.63-1.7 109.63-2.8L109.63-2.8Q109.63-3.7 109.93-4.53 110.23-5.35 110.43-5.7L110.43-5.7Q110.73-6.2 111.25-6.85 111.78-7.5 112.43-8.25L112.43-8.25Q111.43-7.4 110.55-6.6 109.68-5.8 109.13-5.4L109.13-5.4Q108.98-5.25 108.83-5.25L108.83-5.25Q108.63-5.25 108.63-5.5L108.63-5.5Q108.63-5.9 109.18-6.3L109.18-6.3Q110.48-7.4 111.7-8.7 112.93-10 114.03-11.13 115.13-12.25 115.98-12.7L115.98-12.7Q116.88-13.2 117.43-13.35 117.98-13.5 118.33-13.5L118.33-13.5Q118.88-13.5 119.13-13.33 119.38-13.15 119.23-12.95L119.23-12.95Q118.38-12.1 117.55-10.78 116.73-9.45 116.03-8 115.33-6.55 114.9-5.25 114.48-3.95 114.48-3.05L114.48-3.05Q114.48-1.8 115.48-1.8L115.48-1.8Q116.43-1.8 117.95-2.68 119.48-3.55 121.15-4.9 122.83-6.25 124.28-7.55L124.28-7.55Q124.48-7.75 124.63-7.75L124.63-7.75Q124.88-7.75 124.9-7.5 124.93-7.25 124.78-7.15L124.78-7.15Q123.13-5.6 121.05-3.93 118.98-2.25 116.9-1.1 114.83 0.05 113.13 0.05ZM130.22 0.5L130.22 0.5Q128.07 0.5 126.6-0.58 125.12-1.65 125.12-3.7L125.12-3.7Q125.12-5.9 126.2-7.8 127.27-9.7 129.02-11.13 130.77-12.55 132.85-13.35 134.92-14.15 136.97-14.15L136.97-14.15Q139.02-14.15 140-13.4 140.97-12.65 140.97-11.6L140.97-11.6Q140.97-10.9 140.57-10.23 140.17-9.55 139.47-9.55L139.47-9.55Q139.02-9.55 139.02-9.9L139.02-9.9Q139.02-10.15 139.17-10.35L139.17-10.35Q139.77-11.4 139.77-12.2L139.77-12.2Q139.77-13.2 138.72-13.2L138.72-13.2Q137.87-13.2 136.52-12.55L136.52-12.55Q135.42-12.05 134.2-11.03 132.97-10 131.92-8.68 130.87-7.35 130.2-5.98 129.52-4.6 129.52-3.4L129.52-3.4Q129.52-2.25 130.17-1.5 130.82-0.75 132.12-0.75L132.12-0.75Q132.97-0.75 134.15-1.15 135.32-1.55 136.77-2.45L136.77-2.45Q137.97-3.2 139.3-4.25 140.62-5.3 141.87-6.4 143.12-7.5 144.02-8.3L144.02-8.3Q144.32-8.6 144.52-8.6L144.52-8.6Q144.72-8.6 144.72-8.35L144.72-8.35Q144.72-8 144.42-7.75L144.42-7.75Q143.12-6.55 141.57-5.18 140.02-3.8 138.35-2.6 136.67-1.4 135.07-0.65L135.07-0.65Q132.47 0.5 130.22 0.5ZM147.16 0.05L147.16 0.05Q145.61 0.05 144.76-0.93 143.91-1.9 143.91-3.45L143.91-3.45Q143.91-4.9 144.69-6.65 145.46-8.4 147.16-10.2L147.16-10.2Q148.91-12.1 151.51-13.28 154.11-14.45 156.46-14.45L156.46-14.45Q158.36-14.45 159.71-13.63 161.06-12.8 161.51-11.55L161.51-11.55Q162.06-11.55 162.89-11.25 163.71-10.95 163.71-10.15L163.71-10.15Q163.71-9.6 163.16-8.9L163.16-8.9Q162.81-8.4 161.94-7.4 161.06-6.4 160.31-5.25L160.31-5.25Q159.71-4.35 159.36-3.58 159.01-2.8 159.01-2.25L159.01-2.25Q159.01-1.5 159.76-1.5L159.76-1.5Q160.61-1.5 162.31-2.45L162.31-2.45Q164.16-3.5 165.86-4.85 167.56-6.2 168.51-7L168.51-7Q168.76-7.2 168.86-7.2L168.86-7.2Q169.06-7.2 169.06-6.95L169.06-6.95Q169.06-6.65 168.81-6.4L168.81-6.4Q168.36-6 167.06-4.9 165.76-3.8 164.09-2.6 162.41-1.4 160.81-0.65L160.81-0.65Q160.01-0.3 159.34-0.13 158.66 0.05 158.11 0.05L158.11 0.05Q156.76 0.05 156.06-0.73 155.36-1.5 155.36-2.75L155.36-2.75Q155.36-3.25 155.51-3.8 155.66-4.35 155.86-4.9L155.86-4.9 156.21-5.75Q154.91-4.15 153.61-3.08 152.31-2 151.01-1.2L151.01-1.2Q149.91-0.55 148.94-0.25 147.96 0.05 147.16 0.05ZM148.71-1.25L148.71-1.25Q149.61-1.25 151.31-2.33 153.01-3.4 155.26-5.65L155.26-5.65Q155.56-5.95 156.39-6.73 157.21-7.5 158.16-8.47 159.11-9.45 159.79-10.43 160.46-11.4 160.46-12.05L160.46-12.05Q160.46-13 158.81-13L158.81-13Q157.36-13 155.34-11.88 153.31-10.75 151.46-8.55L151.46-8.55Q149.56-6.3 148.69-4.67 147.81-3.05 147.81-2.2L147.81-2.2Q147.81-1.25 148.71-1.25ZM174.86 0.25L174.86 0.25Q172.86 0.25 172.06-0.73 171.26-1.7 171.26-3L171.26-3Q171.26-4.25 171.73-5.65 172.21-7.05 172.81-8.3L172.81-8.3Q172.16-7.6 171.56-7.03 170.96-6.45 170.56-6.1L170.56-6.1Q170.36-5.95 170.16-5.95L170.16-5.95Q169.91-5.95 169.91-6.2L169.91-6.2Q169.91-6.45 170.21-6.65L170.21-6.65Q171.26-7.55 172.66-9.1 174.06-10.65 175.26-12.25L175.26-12.25Q176.26-13.55 177.66-15.5 179.06-17.45 180.51-19.63 181.96-21.8 183.01-23.6L183.01-23.6Q183.16-23.9 183.33-24.35 183.51-24.8 183.51-25.15L183.51-25.15Q183.51-25.65 183.11-25.65L183.11-25.65Q183.01-25.65 182.53-25.45 182.06-25.25 181.61-25.05 181.16-24.85 181.06-24.85L181.06-24.85Q180.66-24.85 181.11-25.3L181.11-25.3Q181.91-25.9 183.13-26.48 184.36-27.05 185.66-27.45 186.96-27.85 187.86-27.85L187.86-27.85Q189.96-27.85 189.96-26.5L189.96-26.5Q189.96-25.8 189.31-24.65L189.31-24.65Q188.76-23.75 187.71-22.53 186.66-21.3 185.38-19.93 184.11-18.55 182.91-17.23 181.71-15.9 180.91-14.9L180.91-14.9Q180.71-14.65 179.93-13.6 179.16-12.55 178.18-11.08 177.21-9.6 176.23-7.98 175.26-6.35 174.63-4.88 174.01-3.4 174.01-2.4L174.01-2.4Q174.01-1.05 175.31-1.05L175.31-1.05Q176.16-1.05 177.46-1.55L177.46-1.55Q178.71-2 180.08-2.93 181.46-3.85 182.78-4.9 184.11-5.95 185.13-6.9 186.16-7.85 186.66-8.35L186.66-8.35Q186.96-8.65 187.16-8.65L187.16-8.65Q187.36-8.65 187.36-8.4L187.36-8.4Q187.36-8.15 187.11-7.9L187.11-7.9Q186.31-7.05 184.93-5.7 183.56-4.35 181.88-2.98 180.21-1.6 178.41-0.68 176.61 0.25 174.86 0.25ZM203.04-21.15L203.04-21.15Q202.74-21.15 202.39-21.4L202.39-21.4Q201.49-22.25 201.49-23.55L201.49-23.55Q201.49-25.1 202.82-26.78 204.14-28.45 206.74-29.45L206.74-29.45Q209.69-30.6 213.14-31.38 216.59-32.15 220.22-32.52 223.84-32.9 227.19-32.9L227.19-32.9Q228.44-32.9 229.64-32.85 230.84-32.8 231.94-32.7L231.94-32.7Q239.29-32 243.17-29.9 247.04-27.8 247.04-25.5L247.04-25.5Q247.04-24.55 246.39-23.7L246.39-23.7Q246.09-23.3 245.52-22.93 244.94-22.55 244.59-22.55L244.59-22.55Q244.29-22.55 244.29-22.85L244.29-22.85Q244.29-23.2 244.79-24L244.79-24Q245.39-24.9 245.39-25.65L245.39-25.65Q245.39-27.1 243.57-27.93 241.74-28.75 238.82-29.08 235.89-29.4 232.54-29.4L232.54-29.4Q230.24-29.4 227.89-29.28 225.54-29.15 223.49-28.95L223.49-28.95Q222.54-28.85 220.62-28.6 218.69-28.35 216.29-27.98 213.89-27.6 211.44-27.08 208.99-26.55 206.94-25.9 204.89-25.25 203.62-24.48 202.34-23.7 202.34-22.75L202.34-22.75Q202.34-22.1 203.09-21.4L203.09-21.4Q203.19-21.3 203.19-21.25L203.19-21.25Q203.19-21.15 203.04-21.15ZM216.79 4.05L216.79 4.05Q214.19 3.85 213.24 2.4 212.29 0.95 212.29-1L212.29-1Q212.29-2.65 212.74-4.4 213.19-6.15 213.69-7.6L213.69-7.6Q214.19-9 215.02-10.55 215.84-12.1 217.27-14.25 218.69-16.4 220.99-19.65 223.29-22.9 226.69-27.7L226.69-27.7Q227.29-28.45 227.74-28.45L227.74-28.45Q228.04-28.45 228.17-28.23 228.29-28 228.19-27.8L228.19-27.8Q223.49-20.85 220.97-15.88 218.44-10.9 217.24-7.4L217.24-7.4Q216.99-6.7 216.62-5.43 216.24-4.15 215.94-2.68 215.64-1.2 215.64 0.1L215.64 0.1Q215.64 1.5 216.14 2.5 216.64 3.5 217.89 3.5L217.89 3.5Q218.64 3.5 219.29 3L219.29 3Q219.54 2.85 219.59 2.85L219.59 2.85Q219.69 2.85 219.69 2.95L219.69 2.95Q219.69 3.1 219.39 3.35L219.39 3.35Q218.44 4.2 216.79 4.05ZM233.59 0.05L233.59 0.05Q231.44 0.05 230.69-0.78 229.94-1.6 229.94-2.6L229.94-2.6Q229.94-3.9 230.94-5.35L230.94-5.35Q231.54-6.2 232.29-7.28 233.04-8.35 233.69-9.3 234.34-10.25 234.59-10.65L234.59-10.65Q234.94-11.15 235.01-11.33 235.09-11.5 235.09-11.7L235.09-11.7Q235.09-12 234.71-12.28 234.34-12.55 233.49-12.55L233.49-12.55Q233.24-12.55 233.06-12.53 232.89-12.5 232.69-12.5L232.69-12.5Q232.29-12.5 232.24-12.55L232.24-12.55 232.09-12.35Q230.69-10.5 229.09-8.72 227.49-6.95 225.59-5.45L225.59-5.45Q225.39-5.3 225.29-5.3L225.29-5.3Q225.09-5.3 225.09-5.5L225.09-5.5Q225.09-5.9 225.69-6.4L225.69-6.4Q227.24-7.7 228.74-9.33 230.24-10.95 231.44-12.75L231.44-12.75Q230.99-13.05 230.99-13.95L230.99-13.95Q230.99-15.3 231.84-16.85L231.84-16.85Q232.44-17.9 233.16-18.43 233.89-18.95 234.44-18.95L234.44-18.95Q235.49-18.95 235.49-17.7L235.49-17.7Q235.49-16.9 234.89-15.7L234.89-15.7Q234.64-15.1 233.91-14.18 233.19-13.25 232.49-12.85L232.49-12.85Q233.54-13.2 235.16-13.33 236.79-13.45 237.89-13.45L237.89-13.45Q238.54-13.45 239.49-13.08 240.44-12.7 240.44-11.75L240.44-11.75Q240.44-11.1 239.84-10.35L239.84-10.35Q239.69-10.15 239.04-9.4 238.39-8.65 237.61-7.6 236.84-6.55 236.19-5.5L236.19-5.5Q235.54-4.55 235.16-3.75 234.79-2.95 234.79-2.4L234.79-2.4Q234.79-1.6 235.69-1.6L235.69-1.6Q236.74-1.6 238.49-2.6 240.24-3.6 242.26-5.18 244.29-6.75 245.99-8.45L245.99-8.45Q246.19-8.65 246.34-8.65L246.34-8.65Q246.54-8.65 246.54-8.4L246.54-8.4Q246.54-8.1 246.29-7.85L246.29-7.85Q244.54-6.1 242.41-4.28 240.29-2.45 238.01-1.2 235.74 0.05 233.59 0.05ZM248.93 0.05L248.93 0.05Q247.38 0.05 246.53-0.93 245.68-1.9 245.68-3.45L245.68-3.45Q245.68-4.9 246.45-6.65 247.23-8.4 248.93-10.2L248.93-10.2Q250.68-12.1 253.28-13.28 255.88-14.45 258.23-14.45L258.23-14.45Q260.13-14.45 261.48-13.63 262.83-12.8 263.28-11.55L263.28-11.55Q263.83-11.55 264.65-11.25 265.48-10.95 265.48-10.15L265.48-10.15Q265.48-9.6 264.93-8.9L264.93-8.9Q264.58-8.4 263.7-7.4 262.83-6.4 262.08-5.25L262.08-5.25Q261.48-4.35 261.13-3.58 260.78-2.8 260.78-2.25L260.78-2.25Q260.78-1.5 261.53-1.5L261.53-1.5Q262.38-1.5 264.08-2.45L264.08-2.45Q265.93-3.5 267.63-4.85 269.33-6.2 270.28-7L270.28-7Q270.53-7.2 270.63-7.2L270.63-7.2Q270.83-7.2 270.83-6.95L270.83-6.95Q270.83-6.65 270.58-6.4L270.58-6.4Q270.13-6 268.83-4.9 267.53-3.8 265.85-2.6 264.18-1.4 262.58-0.65L262.58-0.65Q261.78-0.3 261.1-0.13 260.43 0.05 259.88 0.05L259.88 0.05Q258.53 0.05 257.83-0.73 257.13-1.5 257.13-2.75L257.13-2.75Q257.13-3.25 257.28-3.8 257.43-4.35 257.63-4.9L257.63-4.9 257.98-5.75Q256.68-4.15 255.38-3.08 254.08-2 252.78-1.2L252.78-1.2Q251.68-0.55 250.7-0.25 249.73 0.05 248.93 0.05ZM250.48-1.25L250.48-1.25Q251.38-1.25 253.08-2.33 254.78-3.4 257.03-5.65L257.03-5.65Q257.33-5.95 258.15-6.73 258.98-7.5 259.93-8.47 260.88-9.45 261.55-10.43 262.23-11.4 262.23-12.05L262.23-12.05Q262.23-13 260.58-13L260.58-13Q259.13-13 257.1-11.88 255.08-10.75 253.23-8.55L253.23-8.55Q251.33-6.3 250.45-4.67 249.58-3.05 249.58-2.2L249.58-2.2Q249.58-1.25 250.48-1.25ZM276.82 0.5L276.82 0.5Q274.67 0.5 273.2-0.58 271.72-1.65 271.72-3.7L271.72-3.7Q271.72-5.9 272.8-7.8 273.87-9.7 275.62-11.13 277.37-12.55 279.45-13.35 281.52-14.15 283.57-14.15L283.57-14.15Q285.62-14.15 286.6-13.4 287.57-12.65 287.57-11.6L287.57-11.6Q287.57-10.9 287.17-10.23 286.77-9.55 286.07-9.55L286.07-9.55Q285.62-9.55 285.62-9.9L285.62-9.9Q285.62-10.15 285.77-10.35L285.77-10.35Q286.37-11.4 286.37-12.2L286.37-12.2Q286.37-13.2 285.32-13.2L285.32-13.2Q284.47-13.2 283.12-12.55L283.12-12.55Q282.02-12.05 280.8-11.03 279.57-10 278.52-8.68 277.47-7.35 276.8-5.98 276.12-4.6 276.12-3.4L276.12-3.4Q276.12-2.25 276.77-1.5 277.42-0.75 278.72-0.75L278.72-0.75Q279.57-0.75 280.75-1.15 281.92-1.55 283.37-2.45L283.37-2.45Q284.57-3.2 285.9-4.25 287.22-5.3 288.47-6.4 289.72-7.5 290.62-8.3L290.62-8.3Q290.92-8.6 291.12-8.6L291.12-8.6Q291.32-8.6 291.32-8.35L291.32-8.35Q291.32-8 291.02-7.75L291.02-7.75Q289.72-6.55 288.17-5.18 286.62-3.8 284.95-2.6 283.27-1.4 281.67-0.65L281.67-0.65Q279.07 0.5 276.82 0.5ZM292.86 3.95L292.86 3.95Q291.76 2.95 291.39 2.13 291.01 1.3 291.01-0.15L291.01-0.15Q291.01-1.65 291.44-3.5 291.86-5.35 292.66-7.35L292.66-7.35Q292.16-6.85 291.61-6.35 291.06-5.85 290.51-5.45L290.51-5.45Q290.36-5.3 290.21-5.3L290.21-5.3Q290.06-5.3 290.06-5.45L290.06-5.45Q290.06-5.8 290.66-6.4L290.66-6.4Q291.46-7.1 292.16-7.95 292.86-8.8 293.71-9.85L293.71-9.85Q296.21-15.4 299.31-19.85 302.41-24.3 306.81-28.4L306.81-28.4Q309.06-30.45 311.04-31.35 313.01-32.25 314.51-32.25L314.51-32.25Q316.01-32.25 316.86-31.45 317.71-30.65 317.71-29.35L317.71-29.35Q317.71-28.1 316.89-26.5 316.06-24.9 314.21-23.15L314.21-23.15Q312.91-21.9 311.11-20.58 309.31-19.25 307.41-18.1 305.51-16.95 303.86-16.2L303.86-16.2Q303.76-16.15 303.66-16.13 303.56-16.1 303.46-16.1L303.46-16.1Q303.11-16.1 303.11-16.35L303.11-16.35Q303.11-16.65 303.66-16.85L303.66-16.85Q305.21-17.55 307.09-18.75 308.96-19.95 310.71-21.35 312.46-22.75 313.66-24L313.66-24Q315.16-25.6 315.84-26.73 316.51-27.85 316.51-28.45L316.51-28.45Q316.51-29.2 315.66-29.2L315.66-29.2Q314.76-29.2 313.09-28.28 311.41-27.35 309.26-25.45L309.26-25.45Q306.61-23.1 304.04-20.05 301.46-17 299.34-14.03 297.21-11.05 295.81-8.75L295.81-8.75Q297.76-11.35 299.61-12.8 301.46-14.25 303.01-14.9L303.01-14.9Q304.31-15.4 305.46-15.4L305.46-15.4Q306.76-15.4 307.56-14.75 308.36-14.1 308.36-13.1L308.36-13.1Q308.36-12.1 307.69-10.85 307.01-9.6 305.41-8.4L305.41-8.4Q304.16-7.5 302.09-6.83 300.01-6.15 298.21-6.15L298.21-6.15Q297.16-6.15 296.41-6.45L296.41-6.45Q297.41-5.2 298.91-4.03 300.41-2.85 301.99-2.13 303.56-1.4 304.76-1.4L304.76-1.4Q305.61-1.4 306.31-1.85 307.01-2.3 307.01-2.95L307.01-2.95Q307.01-3.05 307.14-3.05 307.26-3.05 307.26-2.95L307.26-2.95Q307.26-2 306.49-1.4 305.71-0.8 304.61-0.55L304.61-0.55Q304.11-0.45 303.59-0.38 303.06-0.3 302.51-0.3L302.51-0.3Q300.46-0.3 298.69-1.03 296.91-1.75 295.64-2.83 294.36-3.9 293.81-4.9L293.81-4.9Q293.16-3.3 292.84-1.73 292.51-0.15 292.51 1.15L292.51 1.15Q292.51 2.9 293.11 3.65L293.11 3.65Q293.26 3.85 293.11 3.93 292.96 4 292.86 3.95ZM297.26-6.7L297.26-6.7Q298.51-6.7 300.24-7.3 301.96-7.9 303.06-8.75L303.06-8.75Q303.96-9.45 304.39-10.25 304.81-11.05 304.81-11.7L304.81-11.7Q304.81-12.4 304.39-12.88 303.96-13.35 303.16-13.35L303.16-13.35Q302.36-13.35 301.26-12.83 300.16-12.3 298.71-11L298.71-11Q297.91-10.25 297.09-9.45 296.26-8.65 295.56-7.8L295.56-7.8Q295.66-7.55 295.81-7.28 295.96-7 296.16-6.9L296.16-6.9Q296.36-6.8 296.66-6.75 296.96-6.7 297.26-6.7ZM314.91 0.5L314.91 0.5Q312.71 0.5 311.23-0.58 309.76-1.65 309.76-3.7L309.76-3.7Q309.76-5.9 310.81-7.8 311.86-9.7 313.61-11.13 315.36-12.55 317.43-13.35 319.51-14.15 321.56-14.15L321.56-14.15Q323.61-14.15 324.61-13.43 325.61-12.7 325.61-11.65L325.61-11.65Q325.61-10.65 324.68-9.53 323.76-8.4 322.01-7.55L322.01-7.55Q320.91-7.05 319.48-6.68 318.06-6.3 317.01-6.3L317.01-6.3Q316.21-6.3 316.21-6.55L316.21-6.55Q316.21-6.75 316.91-6.75L316.91-6.75Q317.56-6.75 318.93-7.13 320.31-7.5 321.61-8.15L321.61-8.15Q323.06-8.95 323.66-9.75 324.26-10.55 324.26-11.2L324.26-11.2Q324.26-11.8 323.78-12.2 323.31-12.6 322.46-12.6L322.46-12.6Q321.66-12.6 320.66-12.15L320.66-12.15Q319.21-11.5 317.68-10.03 316.16-8.55 315.16-6.8 314.16-5.05 314.16-3.45L314.16-3.45Q314.16-2.35 314.78-1.6 315.41-0.85 316.66-0.85L316.66-0.85Q317.96-0.85 319.66-1.68 321.36-2.5 323.11-3.73 324.86-4.95 326.36-6.2 327.86-7.45 328.76-8.3L328.76-8.3Q329.06-8.6 329.21-8.6L329.21-8.6Q329.36-8.6 329.36-8.35L329.36-8.35Q329.36-8 329.06-7.75L329.06-7.75Q327.16-6 324.93-4.1 322.71-2.2 320.18-0.88 317.66 0.45 314.91 0.5ZM336.6 0.05L336.6 0.05Q334.45 0.05 333.7-0.78 332.95-1.6 332.95-2.6L332.95-2.6Q332.95-3.9 333.95-5.35L333.95-5.35Q334.55-6.2 335.3-7.28 336.05-8.35 336.7-9.3 337.35-10.25 337.6-10.65L337.6-10.65Q337.95-11.15 338.02-11.33 338.1-11.5 338.1-11.7L338.1-11.7Q338.1-12 337.72-12.28 337.35-12.55 336.5-12.55L336.5-12.55Q336.25-12.55 336.07-12.53 335.9-12.5 335.7-12.5L335.7-12.5Q335.3-12.5 335.25-12.55L335.25-12.55 335.1-12.35Q333.7-10.5 332.1-8.72 330.5-6.95 328.6-5.45L328.6-5.45Q328.4-5.3 328.3-5.3L328.3-5.3Q328.1-5.3 328.1-5.5L328.1-5.5Q328.1-5.9 328.7-6.4L328.7-6.4Q330.25-7.7 331.75-9.33 333.25-10.95 334.45-12.75L334.45-12.75Q334-13.05 334-13.95L334-13.95Q334-15.3 334.85-16.85L334.85-16.85Q335.45-17.9 336.17-18.43 336.9-18.95 337.45-18.95L337.45-18.95Q338.5-18.95 338.5-17.7L338.5-17.7Q338.5-16.9 337.9-15.7L337.9-15.7Q337.65-15.1 336.92-14.18 336.2-13.25 335.5-12.85L335.5-12.85Q336.55-13.2 338.17-13.33 339.8-13.45 340.9-13.45L340.9-13.45Q341.55-13.45 342.5-13.08 343.45-12.7 343.45-11.75L343.45-11.75Q343.45-11.1 342.85-10.35L342.85-10.35Q342.7-10.15 342.05-9.4 341.4-8.65 340.62-7.6 339.85-6.55 339.2-5.5L339.2-5.5Q338.55-4.55 338.17-3.75 337.8-2.95 337.8-2.4L337.8-2.4Q337.8-1.6 338.7-1.6L338.7-1.6Q339.75-1.6 341.5-2.6 343.25-3.6 345.27-5.18 347.3-6.75 349-8.45L349-8.45Q349.2-8.65 349.35-8.65L349.35-8.65Q349.55-8.65 349.55-8.4L349.55-8.4Q349.55-8.1 349.3-7.85L349.3-7.85Q347.55-6.1 345.42-4.28 343.3-2.45 341.02-1.2 338.75 0.05 336.6 0.05ZM376.43 1.65L376.43 1.65Q374.78 1.7 372.78 1.38 370.78 1.05 368.88 0.25 366.98-0.55 365.58-1.85 364.18-3.15 363.68-5.05L363.68-5.05Q365.48-3.45 368.58-2.73 371.68-2 374.88-2L374.88-2Q379.13-2 382.28-2.95L382.28-2.95Q383.18-3.2 384.38-3.78 385.58-4.35 386.73-5.13 387.88-5.9 388.66-6.85 389.43-7.8 389.43-8.8L389.43-8.8Q389.43-9.5 388.98-10.15 388.53-10.8 387.53-11.45L387.53-11.45Q386.93-11.8 385.81-12.23 384.68-12.65 383.38-13.23 382.08-13.8 380.93-14.58 379.78-15.35 379.11-16.43 378.43-17.5 378.58-18.9L378.58-18.9Q378.83-20.95 380.46-22.98 382.08-25 384.56-26.78 387.03-28.55 389.91-29.9 392.78-31.25 395.56-32.02 398.33-32.8 400.48-32.8L400.48-32.8Q402.68-32.8 404.26-31.95 405.83-31.1 405.58-29.05L405.58-29.05Q405.48-28.15 404.36-26.9 403.23-25.65 401.68-24.15 400.13-22.65 398.61-21 397.08-19.35 396.11-17.65 395.13-15.95 395.23-14.35L395.23-14.35Q394.43-15 394.06-15.8 393.68-16.6 393.68-17.45L393.68-17.45Q393.68-18.65 394.18-19.9 394.68-21.15 395.43-22.28 396.18-23.4 396.83-24.2L396.83-24.2Q397.98-25.6 399.43-26.85 400.88-28.1 402.38-29.15L402.38-29.15Q401.93-29.8 400.83-29.8L400.83-29.8Q399.68-29.8 398.26-29.3 396.83-28.8 395.61-28.23 394.38-27.65 393.88-27.35L393.88-27.35Q391.73-26.2 389.56-24.75 387.38-23.3 385.56-21.8 383.73-20.3 382.61-19.03 381.48-17.75 381.38-16.9L381.38-16.9Q381.28-15.85 382.28-15.13 383.28-14.4 384.88-13.8 386.48-13.2 388.03-12.4L388.03-12.4Q390.13-11.35 391.08-10 392.03-8.65 392.03-7.2L392.03-7.2Q392.03-5.4 390.68-3.68 389.33-1.95 387.03-0.8L387.03-0.8Q384.98 0.2 382.76 0.75 380.53 1.3 378.81 1.48 377.08 1.65 376.43 1.65ZM392.23 13.45L392.23 13.45Q389.83 13.45 387.8 12.73 385.78 12 384.43 10.45L384.43 10.45Q383.08 8.9 382.63 6.3L382.63 6.3Q382.53 5.9 382.83 5.9L382.83 5.9Q383.03 5.9 383.13 6.25L383.13 6.25Q383.68 9.05 385.85 10.8 388.03 12.55 390.83 12.55L390.83 12.55Q393.43 12.55 396.08 11.18 398.73 9.8 401.23 7.43 403.73 5.05 405.93 2.05L405.93 2.05Q408.28-1.15 410.2-4.6 412.13-8.05 413.93-11.55L413.93-11.55Q413.28-10.6 412.58-9.6 411.88-8.6 411.18-7.75L411.18-7.75Q409.83-6.05 408.1-4.28 406.38-2.5 404.68-1.28 402.98-0.05 401.58-0.05L401.58-0.05Q400.48-0.05 399.75-0.65 399.03-1.25 399.03-2.5L399.03-2.5Q399.03-3.6 399.43-4.53 399.83-5.45 400.33-6.25L400.33-6.25Q401.18-7.65 402.38-9.1 403.58-10.55 404.48-11.55L404.48-11.55Q405.03-12.2 405.03-12.6L405.03-12.6Q405.03-13.1 404.48-13.1L404.48-13.1Q403.83-13.1 402.83-12.3L402.83-12.3Q401.63-11.45 400.38-10.28 399.13-9.1 398.03-8.05 396.93-7 396.23-6.4L396.23-6.4Q395.88-6.15 395.73-6.15L395.73-6.15Q395.53-6.15 395.53-6.35L395.53-6.35Q395.53-6.65 395.88-6.95L395.88-6.95Q396.88-7.8 398-8.95 399.13-10.1 400.25-11.23 401.38-12.35 402.33-13.05L402.33-13.05Q403.08-13.65 403.88-13.93 404.68-14.2 405.38-14.2L405.38-14.2Q406.58-14.2 407.4-13.5 408.23-12.8 408.23-11.55L408.23-11.55Q408.23-10.6 407.73-9.55L407.73-9.55Q407.13-8.3 406.2-7.08 405.28-5.85 404.43-4.7L404.43-4.7Q403.78-3.75 403.48-3.15 403.18-2.55 403.18-2.3L403.18-2.3Q403.18-1.85 403.58-1.85L403.58-1.85Q403.98-1.85 404.75-2.3 405.53-2.75 406.33-3.45L406.33-3.45Q407.68-4.7 409.3-6.53 410.93-8.35 412.48-10.35 414.03-12.35 415.18-14.05L415.18-14.05Q415.88-15.7 416.68-16.95 417.48-18.2 418.73-18.2L418.73-18.2Q419.43-18.2 419.85-17.8 420.28-17.4 420.28-17L420.28-17Q420.28-16.65 419.98-16.43 419.68-16.2 418.98-16.25L418.98-16.25Q418.43-16.35 417.73-16.05 417.03-15.75 416.28-14.15L416.28-14.15Q415.48-12.35 414.75-9.95 414.03-7.55 413.03-4.8 412.03-2.05 410.4 0.88 408.78 3.8 406.08 6.65L406.08 6.65Q403.43 9.45 399.8 11.45 396.18 13.45 392.23 13.45ZM422.72 0.55L422.72 0.55Q420.72 0.55 419.2-0.23 417.67-1 416.97-3.1L416.97-3.1Q416.92-3.3 417.1-3.35 417.27-3.4 417.32-3.15L417.32-3.15Q417.82-2.05 418.62-1.6 419.42-1.15 420.37-1.15L420.37-1.15Q421.97-1.15 423.2-2.1 424.42-3.05 425.4-4.5 426.37-5.95 427.15-7.48 427.92-9 428.62-10.1L428.62-10.1Q429.72-11.95 431.25-13.45 432.77-14.95 434.02-15.3L434.02-15.3Q433.72-15.45 433.27-15.45L433.27-15.45Q432.02-15.45 430.52-14.7 429.02-13.95 427.5-12.75 425.97-11.55 424.55-10.23 423.12-8.9 421.95-7.78 420.77-6.65 420.07-6L420.07-6Q419.67-5.65 419.47-5.65L419.47-5.65Q419.27-5.65 419.27-5.85L419.27-5.85Q419.27-6.15 419.52-6.4L419.52-6.4Q421.02-7.7 422.62-9.33 424.22-10.95 425.87-12.48 427.52-14 429.22-15 430.92-16 432.67-16L432.67-16Q432.87-16 433.05-16 433.22-16 433.42-15.95L433.42-15.95Q433.97-15.9 434.45-15.65 434.92-15.4 434.72-15.3L434.72-15.3Q433.57-14.8 432.92-13.3 432.27-11.8 431.72-9.8 431.17-7.8 430.4-5.75 429.62-3.7 428.17-2.1L428.17-2.1Q428.87-2.35 430.37-3.25 431.87-4.15 433.67-5.48 435.47-6.8 437.02-8.4L437.02-8.4Q437.22-8.6 437.42-8.6L437.42-8.6Q437.67-8.6 437.67-8.35L437.67-8.35Q437.67-8.15 437.47-7.95L437.47-7.95Q436.12-6.65 434.47-5.18 432.82-3.7 430.9-2.4 428.97-1.1 426.92-0.28 424.87 0.55 422.72 0.55ZM440.56 0.85L440.56 0.85Q438.96 0.85 438.11-0.1 437.26-1.05 437.26-2.75L437.26-2.75Q437.26-4.35 438.11-6.5L438.11-6.5 438.21-6.75 437.31-5.9Q437.11-5.7 436.86-5.7L436.86-5.7Q436.61-5.7 436.61-5.9L436.61-5.9Q436.61-6.15 436.96-6.5L436.96-6.5Q438.26-7.65 439.64-8.93 441.01-10.2 441.96-11.35L441.96-11.35Q441.61-11.2 441.21-11.2L441.21-11.2Q440.81-11.2 440.61-11.4L440.61-11.4Q440.26-11.65 440.26-12.3L440.26-12.3Q440.26-12.85 440.79-13.45 441.31-14.05 442.96-14.5L442.96-14.5Q443.31-14.6 443.69-14.65 444.06-14.7 444.41-14.75L444.41-14.75Q446.01-17 447.21-18.93 448.41-20.85 449.11-21.5L449.11-21.5Q449.41-21.85 450.19-22.1 450.96-22.35 451.84-22.5 452.71-22.65 453.21-22.65L453.21-22.65Q454.86-22.65 454.86-22.35L454.86-22.35Q454.86-22.15 454.11-21.4L454.11-21.4Q452.86-20.2 451.19-18.43 449.51-16.65 447.76-14.6L447.76-14.6Q449.21-14.4 450.44-13.85 451.66-13.3 452.21-12.45L452.21-12.45Q452.41-12.2 452.41-11.85L452.41-11.85Q452.41-11.45 452.16-11.45L452.16-11.45Q451.96-11.45 451.71-11.7L451.71-11.7Q450.66-12.75 448.21-12.75L448.21-12.75Q447.71-12.75 447.19-12.7 446.66-12.65 446.11-12.55L446.11-12.55Q444.41-10.35 443.01-8.15 441.61-5.95 441.01-4.05L441.01-4.05Q440.71-3.15 440.71-2.4L440.71-2.4Q440.71-1.65 441.06-1.18 441.41-0.7 442.11-0.7L442.11-0.7Q442.56-0.7 443.21-0.95L443.21-0.95Q444.16-1.3 445.41-2.13 446.66-2.95 447.94-4 449.21-5.05 450.34-6.05 451.46-7.05 452.21-7.75 452.96-8.45 453.06-8.55L453.06-8.55Q453.21-8.7 453.31-8.7L453.31-8.7Q453.51-8.7 453.51-8.4L453.51-8.4Q453.51-8.05 453.21-7.75L453.21-7.75Q452.71-7.25 451.69-6.25 450.66-5.25 449.34-4.03 448.01-2.8 446.51-1.7 445.01-0.6 443.49 0.13 441.96 0.85 440.56 0.85ZM458.06 0.5L458.06 0.5Q455.86 0.5 454.38-0.58 452.91-1.65 452.91-3.7L452.91-3.7Q452.91-5.9 453.96-7.8 455.01-9.7 456.76-11.13 458.51-12.55 460.58-13.35 462.66-14.15 464.71-14.15L464.71-14.15Q466.76-14.15 467.76-13.43 468.76-12.7 468.76-11.65L468.76-11.65Q468.76-10.65 467.83-9.53 466.91-8.4 465.16-7.55L465.16-7.55Q464.06-7.05 462.63-6.68 461.21-6.3 460.16-6.3L460.16-6.3Q459.36-6.3 459.36-6.55L459.36-6.55Q459.36-6.75 460.06-6.75L460.06-6.75Q460.71-6.75 462.08-7.13 463.46-7.5 464.76-8.15L464.76-8.15Q466.21-8.95 466.81-9.75 467.41-10.55 467.41-11.2L467.41-11.2Q467.41-11.8 466.93-12.2 466.46-12.6 465.61-12.6L465.61-12.6Q464.81-12.6 463.81-12.15L463.81-12.15Q462.36-11.5 460.83-10.03 459.31-8.55 458.31-6.8 457.31-5.05 457.31-3.45L457.31-3.45Q457.31-2.35 457.93-1.6 458.56-0.85 459.81-0.85L459.81-0.85Q461.11-0.85 462.81-1.68 464.51-2.5 466.26-3.73 468.01-4.95 469.51-6.2 471.01-7.45 471.91-8.3L471.91-8.3Q472.21-8.6 472.36-8.6L472.36-8.6Q472.51-8.6 472.51-8.35L472.51-8.35Q472.51-8 472.21-7.75L472.21-7.75Q470.31-6 468.08-4.1 465.86-2.2 463.33-0.88 460.81 0.45 458.06 0.5ZM472 0.25L472 0.25Q471.5 0.25 470.8 0.03 470.1-0.2 469.4-0.8L469.4-0.8Q469.95-1.55 470.97-2.83 472-4.1 473.15-5.65 474.3-7.2 475.3-8.75L475.3-8.75Q474.5-7.95 473.55-7.05 472.6-6.15 471.65-5.4L471.65-5.4Q471.45-5.25 471.25-5.25L471.25-5.25Q471.05-5.25 471.05-5.45L471.05-5.45Q471.05-5.75 471.5-6.15L471.5-6.15Q472.9-7.4 474.57-8.95 476.25-10.5 477.05-12.2L477.05-12.2Q477.3-12.8 477.3-13.3L477.3-13.3Q477.3-13.95 477.05-14.1L477.05-14.1Q476.85-14.25 476.85-14.5L476.85-14.5Q476.85-14.95 477.3-14.95L477.3-14.95Q477.55-14.95 477.7-14.85L477.7-14.85Q478.25-14.6 478.75-13.9 479.25-13.2 479.25-11.75L479.25-11.75Q479.25-10.4 478.7-8.75L478.7-8.75Q479.25-9.6 479.8-10.38 480.35-11.15 480.85-11.8L480.85-11.8Q481.85-13.1 482.97-13.78 484.1-14.45 484.95-14.45L484.95-14.45Q486.35-14.45 486.35-12.85L486.35-12.85Q486.35-11.95 485.75-10.5L485.75-10.5Q485.2-9.25 484.25-7.5L484.25-7.5Q485.1-8.65 485.97-9.7 486.85-10.75 487.5-11.45L487.5-11.45Q488.95-12.9 490.27-13.55 491.6-14.2 492.7-14.2L492.7-14.2Q494-14.2 494.77-13.48 495.55-12.75 495.55-11.5L495.55-11.5Q495.55-10.6 495.1-9.55L495.1-9.55Q494.8-8.95 494.1-7.95 493.4-6.95 492.6-5.85 491.8-4.75 491.25-3.85 490.7-2.95 490.7-2.55L490.7-2.55Q490.7-2.05 491.25-2.05L491.25-2.05Q492.1-2.05 493.2-2.8L493.2-2.8Q494.5-3.7 496-4.95 497.5-6.2 498.45-7L498.45-7Q498.65-7.2 498.8-7.2L498.8-7.2Q499-7.2 499-6.95L499-6.95Q499-6.65 498.75-6.4L498.75-6.4Q498-5.7 496.82-4.65 495.65-3.6 494.3-2.55 492.95-1.5 491.65-0.78 490.35-0.05 489.35-0.05L489.35-0.05Q488.05-0.05 487.22-0.65 486.4-1.25 486.4-2.55L486.4-2.55Q486.4-3.4 486.75-4.45L486.75-4.45Q487.1-5.5 488.15-6.93 489.2-8.35 490.4-9.73 491.6-11.1 492.4-12L492.4-12Q493-12.7 493-13.05L493-13.05Q493-13.5 492.4-13.5L492.4-13.5Q491.7-13.5 490.32-12.75 488.95-12 487.4-10.35L487.4-10.35Q486.4-9.3 485.37-7.7 484.35-6.1 483.55-4.48 482.75-2.85 482.3-1.6L482.3-1.6Q481.95-0.7 481-0.7L481-0.7Q480.5-0.7 480.07-1 479.65-1.3 479.85-1.65L479.85-1.65Q481.1-3.85 482.32-6 483.55-8.15 484.55-10.5L484.55-10.5Q485.25-12.05 485.25-12.85L485.25-12.85Q485.25-13.55 484.65-13.55L484.65-13.55Q484.05-13.55 483.02-12.83 482-12.1 481.25-11.2L481.25-11.2Q480.05-9.8 478.95-8.08 477.85-6.35 477.05-4.95L477.05-4.95Q476.4-3.9 475.7-2.9 475-1.9 474.15-1L474.15-1Q473.05 0.25 472 0.25Z" opacity="1" transform="matrix(1,0,0,1,0,0)" fill="#000000" class="slogan-text-1" data-fill-palette-color="quaternary" id="text-1"></path></svg></g></svg></g></svg></g></svg></g><g transform="matrix(1,0,0,1,56.70479816168672,0)"><svg viewBox="0 0 99.74884490378368 83.86473717313746" height="83.86473717313746" width="99.74884490378368"><g><svg xmlns="http://www.w3.org/2000/svg" xmlns:xlink="http://www.w3.org/1999/xlink" version="1.0" x="0" y="0" viewBox="15.7 21.2 68.50952688966727 57.599999999999994" enable-background="new 0 0 100 100" xml:space="preserve" height="83.86473717313746" width="99.74884490378368" class="icon-icon-0" data-fill-palette-color="quaternary" id="icon-0"><path d="M82.7 64.6H17.3C16.4 64.6 15.7 63.9 15.7 63V22.8C15.7 21.9 16.4 21.2 17.3 21.2H82.6C83.5 21.2 84.2 21.9 84.2 22.8V63C84.3 63.9 83.6 64.6 82.7 64.6M19 61.4H81V24.4H19z" fill="#000000" data-fill-palette-color="quaternary"></path><path d="M36.7 56.8C28.9 56.8 22.6 50.5 22.6 42.7S28.9 28.6 36.7 28.6 50.8 34.9 50.8 42.7C50.8 50.4 44.4 56.8 36.7 56.8M36.7 31.7C30.7 31.7 25.8 36.6 25.8 42.6S30.7 53.5 36.7 53.5 47.6 48.6 47.6 42.6 42.7 31.7 36.7 31.7" fill="#000000" data-fill-palette-color="quaternary"></path><path d="M73.8 36.9H47.2C46.3 36.9 45.6 36.2 45.6 35.3S46.3 33.7 47.2 33.7H73.8C74.7 33.7 75.4 34.4 75.4 35.3S74.7 36.9 73.8 36.9" fill="#000000" data-fill-palette-color="quaternary"></path><path d="M73.8 52.3H47.2C46.3 52.3 45.6 51.6 45.6 50.7S46.3 49.1 47.2 49.1H73.8C74.7 49.1 75.4 49.8 75.4 50.7S74.7 52.3 73.8 52.3" fill="#000000" data-fill-palette-color="quaternary"></path><path d="M36.5 35.5C35.6 35.5 34.9 34.8 34.9 33.9V30.1C34.9 29.2 35.6 28.5 36.5 28.5S38.1 29.2 38.1 30.1V33.9C38.2 34.8 37.4 35.5 36.5 35.5" fill="#000000" data-fill-palette-color="quaternary"></path><path d="M36.5 56.8C35.6 56.8 34.9 56.1 34.9 55.2V51.4C34.9 50.5 35.6 49.8 36.5 49.8S38.1 50.5 38.1 51.4V55.2C38.2 56 37.4 56.8 36.5 56.8" fill="#000000" data-fill-palette-color="quaternary"></path><path d="M32.2 36.7C31.6 36.7 31.1 36.4 30.8 35.9L29 32.6C28.6 31.8 28.8 30.8 29.6 30.4S31.4 30.2 31.8 31L33.6 34.3C34 35.1 33.8 36.1 33 36.5 32.7 36.6 32.4 36.7 32.2 36.7" fill="#000000" data-fill-palette-color="quaternary"></path><path d="M42.8 55.1C42.2 55.1 41.7 54.8 41.4 54.3L39.5 51C39.1 50.2 39.3 49.2 40.1 48.8S41.9 48.6 42.3 49.4L44.1 52.7C44.5 53.5 44.3 54.5 43.5 54.9 43.3 55 43.1 55.1 42.8 55.1" fill="#000000" data-fill-palette-color="quaternary"></path><path d="M29 39.9C28.7 39.9 28.5 39.8 28.2 39.7L24.9 37.9C24.1 37.5 23.9 36.5 24.3 35.7S25.7 34.7 26.5 35.1L29.8 36.9C30.6 37.3 30.8 38.3 30.4 39.1 30.1 39.6 29.5 39.9 29 39.9" fill="#000000" data-fill-palette-color="quaternary"></path><path d="M47.4 50.5C47.1 50.5 46.9 50.4 46.6 50.3L43.3 48.5C42.5 48.1 42.2 47.1 42.7 46.3 43.1 45.5 44.1 45.3 44.9 45.7L48.2 47.5C49 47.9 49.3 48.9 48.8 49.7 48.5 50.2 47.9 50.5 47.4 50.5" fill="#000000" data-fill-palette-color="quaternary"></path><path d="M27.8 44.3H24C23.1 44.3 22.4 43.6 22.4 42.7S23.1 41 24 41H27.8C28.7 41 29.4 41.7 29.4 42.6S28.7 44.3 27.8 44.3" fill="#000000" data-fill-palette-color="quaternary"></path><path d="M49.1 44.3H45.3C44.4 44.3 43.7 43.6 43.7 42.7S44.4 41.1 45.3 41.1H49.1C50 41.1 50.7 41.8 50.7 42.7S50 44.3 49.1 44.3" fill="#000000" data-fill-palette-color="quaternary"></path><path d="M25.7 50.5C25.1 50.5 24.6 50.2 24.3 49.7 23.9 48.9 24.1 47.9 24.9 47.5L28.2 45.7C29 45.3 30 45.5 30.4 46.3S30.6 48.1 29.8 48.5L26.5 50.3C26.3 50.4 26 50.5 25.7 50.5" fill="#000000" data-fill-palette-color="quaternary"></path><path d="M44.1 39.9C43.5 39.9 43 39.6 42.7 39.1 42.3 38.3 42.5 37.3 43.3 36.9L46.6 35.1C47.4 34.7 48.4 34.9 48.8 35.7S49 37.5 48.2 37.9L44.9 39.7C44.7 39.8 44.4 39.9 44.1 39.9" fill="#000000" data-fill-palette-color="quaternary"></path><path d="M30.3 55.1C30 55.1 29.8 55 29.5 54.9 28.7 54.5 28.4 53.5 28.9 52.7L30.7 49.4C31.1 48.6 32.1 48.4 32.9 48.8S34 50.2 33.5 51L31.7 54.3C31.4 54.8 30.9 55.1 30.3 55.1" fill="#000000" data-fill-palette-color="quaternary"></path><path d="M40.9 36.7C40.6 36.7 40.4 36.6 40.1 36.5 39.3 36.1 39.1 35.1 39.5 34.3L41.3 31C41.7 30.2 42.7 30 43.5 30.4S44.5 31.8 44.1 32.6L42.3 35.9C42 36.4 41.5 36.7 40.9 36.7" fill="#000000" data-fill-palette-color="quaternary"></path><path d="M34.4 47.9C34.1 47.9 33.8 47.8 33.6 47.7 32.8 47.3 32.6 46.3 33 45.5L37.3 38.2C37.7 37.4 38.7 37.2 39.5 37.6S40.5 39 40.1 39.8L35.8 47.1C35.5 47.6 35 47.9 34.4 47.9" fill="#000000" data-fill-palette-color="quaternary"></path><path d="M23.4 59.4C21.9 59.4 20.7 58.2 20.7 56.7S21.9 54 23.4 54 26.1 55.2 26.1 56.7C26.2 58.2 25 59.4 23.4 59.4M23.4 56.2C23.1 56.2 22.9 56.4 22.9 56.7S23.1 57.2 23.4 57.2 23.9 57 23.9 56.7 23.7 56.2 23.4 56.2" fill="#000000" data-fill-palette-color="quaternary"></path><path d="M23.8 78.8C20.8 78.8 18.6 77.8 17.4 75.8 13.9 70 21 57.9 21.8 56.6 22.3 55.8 23.3 55.6 24 56.1 24.8 56.6 25 57.6 24.5 58.3 21.8 62.8 18.2 71 20.1 74.2 20.3 74.6 21 75.8 24.2 75.6 29.4 75.3 30.1 73.7 30.8 71.6 32.2 68 34 65.4 43.5 66.6 44.4 66.7 45 67.5 44.9 68.4S44 69.9 43.1 69.8C35.3 68.8 34.7 70.4 33.8 72.7 32.9 75.1 31.6 78.4 24.3 78.8z" fill="#000000" data-fill-palette-color="quaternary"></path></svg></g></svg></g><g></g></svg></g></svg></g></svg></g></svg></g><defs></defs></svg><rect width="342.85155851775386" height="342.85155851775386" fill="none" stroke="none" visibility="hidden"></rect></g></svg></g></svg>