<svg xmlns="http://www.w3.org/2000/svg" version="1.1" xmlns:xlink="http://www.w3.org/1999/xlink" xmlns:svgjs="http://svgjs.dev/svgjs" width="2000" height="636" viewBox="0 0 2000 636"><g transform="matrix(1,0,0,1,-1.2121212121212466,1.1948778794895247)"><svg viewBox="0 0 396 126" data-background-color="#135437" preserveAspectRatio="xMidYMid meet" height="636" width="2000" xmlns="http://www.w3.org/2000/svg" xmlns:xlink="http://www.w3.org/1999/xlink"><g id="tight-bounds" transform="matrix(1,0,0,1,0.2400000000000091,-0.23672108933283198)"><svg viewBox="0 0 395.52 126.47344217866566" height="126.47344217866566" width="395.52"><g><svg viewBox="0 0 615.656728593875 196.865457285912" height="126.47344217866566" width="395.52"><g transform="matrix(1,0,0,1,220.136728593875,58.19736973760817)"><svg viewBox="0 0 395.52 80.47071781069565" height="80.47071781069565" width="395.52"><g id="textblocktransform"><svg viewBox="0 0 395.52 80.47071781069565" height="80.47071781069565" width="395.52" id="textblock"><g><svg viewBox="0 0 395.52 49.28766860664156" height="49.28766860664156" width="395.52"><g transform="matrix(1,0,0,1,0,0)"><svg width="395.52" viewBox="5.75 -35.7 292.08 36.400000000000006" height="49.28766860664156" data-palette-color="#ffffff"><path d="M35.85-35L39.45-35 39.45 0 36.05 0 36.05-32.1 35.75-32.1 23.65-8.9 22.1-8.9 8.35-29.35 8.05-29.35 9.15 0 5.75 0 7-35.7 8-35.7 23.75-12.3 24.05-12.3 35.85-35ZM67.85 0L52.45 0 52.45-35 67.7-35 67.7-32.55 58.95-33.7Q56.65-34 55.85-34L55.85-34 55.85-18.75Q56.5-18.75 58.95-18.9L58.95-18.9 67.15-19.4 67.15-17.1 58.95-17.6Q56.5-17.75 55.85-17.75L55.85-17.75 55.85-1Q56.75-1 59-1.3L59-1.3 67.85-2.45 67.85 0ZM89.35 0L78.35 0 78.35-35 89.35-35Q95.15-35 99.45-32.8 103.75-30.6 106.15-26.68 108.55-22.75 108.55-17.5L108.55-17.5Q108.55-12.25 106.15-8.33 103.75-4.4 99.45-2.2 95.15 0 89.35 0L89.35 0ZM89.35-33.8L89.35-33.8 81.75-33.8 81.75-1.2 89.35-1.2Q96.6-1.2 100.67-5.5 104.75-9.8 104.75-17.5L104.75-17.5Q104.75-25.2 100.67-29.5 96.6-33.8 89.35-33.8ZM122.44 0L119.04 0 119.04-35 122.44-35 122.44 0ZM146.84 0L143.44 0 143.44-34Q142.69-34 140.34-33.7L140.34-33.7 130.54-32.45 130.54-35 159.74-35 159.74-32.45 149.94-33.7Q147.59-34 146.84-34L146.84-34 146.84 0ZM167.84 0L167.84-35 174.54-35Q179.84-35 182.76-32.77 185.69-30.55 185.69-26.55L185.69-26.55Q185.69-23.45 183.86-21.4 182.04-19.35 178.59-18.65L178.59-18.65 178.59-18.35Q181.89-17.7 183.99-15.25 186.09-12.8 187.14-9.2L187.14-9.2Q188.09-5.9 189.01-4.08 189.94-2.25 191.06-1.45 192.19-0.65 193.74-0.3L193.74-0.3 193.74 0 191.69 0Q189.49 0 188.06-0.8 186.64-1.6 185.64-3.5 184.64-5.4 183.74-8.75L183.74-8.75Q182.29-13.9 179.89-16.05 177.49-18.2 174.04-18.2L174.04-18.2 173.74-18.2 173.74-19.1 174.04-19.1Q182.09-19.1 182.09-26.5L182.09-26.5Q182.09-33.8 174.54-33.8L174.54-33.8 171.24-33.8 171.24 0 167.84 0ZM199.89 0L196.24 0 209.69-35 212.79-35 226.24 0 222.59 0 216.39-16.4 205.04-16.4 199.89 0ZM210.34-32.4L210.04-32.4 205.39-17.6 215.94-17.6 210.34-32.4ZM261.43-4.3L261.73-4.3 261.43-1.25Q260.03-0.65 258.03-0.2 256.03 0.25 253.98 0.48 251.93 0.7 250.33 0.7L250.33 0.7Q246.28 0.7 242.83-0.68 239.38-2.05 236.81-4.5 234.23-6.95 232.78-10.28 231.33-13.6 231.33-17.5L231.33-17.5Q231.33-21.4 232.78-24.73 234.23-28.05 236.81-30.5 239.38-32.95 242.83-34.33 246.28-35.7 250.33-35.7L250.33-35.7Q251.98-35.7 254.03-35.45 256.08-35.2 258.03-34.77 259.98-34.35 261.33-33.8L261.33-33.8 261.08-31 260.78-31Q258.93-32.7 256.13-33.6 253.33-34.5 250.33-34.5L250.33-34.5Q245.83-34.5 242.41-32.38 238.98-30.25 237.06-26.43 235.13-22.6 235.13-17.5L235.13-17.5Q235.13-12.35 237.06-8.55 238.98-4.75 242.38-2.63 245.78-0.5 250.33-0.5L250.33-0.5Q253.73-0.5 256.66-1.6 259.58-2.7 261.43-4.3L261.43-4.3ZM297.83 0L293.33 0 276.93-17.95 292.13-35 296.43-35 279.98-19.35 297.83 0ZM275.13 0L271.73 0 271.73-35 275.13-35 275.13 0Z" opacity="1" transform="matrix(1,0,0,1,0,0)" fill="#ffffff" class="wordmark-text-0" data-fill-palette-color="primary" id="text-0"></path></svg></g></svg></g><g transform="matrix(1,0,0,1,0,60.92330426062307)"><svg viewBox="0 0 232.20979200000002 19.547413550072566" height="19.547413550072566" width="232.20979200000002"><g transform="matrix(1,0,0,1,0,0)"><svg width="232.20979200000002" viewBox="1.75 -36.4 551.15 46.4" height="19.547413550072566" data-palette-color="#d5d5d5"><path d="M39.4 0L39.4 0Q37.8 0 36.33-0.9 34.85-1.8 33.95-3.75 33.05-5.7 33.05-8.75L33.05-8.75Q33.05-11.25 33.65-14.38 34.25-17.5 35.23-20.65 36.2-23.8 37.35-26.35L37.35-26.35Q33.9-24.05 31.3-20 28.7-15.95 26.8-10.6L26.8-10.6Q27.2-9 27.45-7.6 27.7-6.2 27.7-5.05L27.7-5.05Q27.7-2.85 26.65-1.6 25.6-0.35 23-0.35L23-0.35Q20.7-0.35 19.63-1.38 18.55-2.4 18.55-4.25L18.55-4.25Q18.55-5.45 18.98-7 19.4-8.55 20.2-10.35L20.2-10.35Q19.3-13 18-16.32 16.7-19.65 14.35-23.6L14.35-23.6Q13.65-20.65 12.93-17.73 12.2-14.8 11.73-12.33 11.25-9.85 11.25-8.15L11.25-8.15Q11.25-5.4 12.75-5.4L12.75-5.4 12.85-5.3Q12.85-3.65 12.03-2.48 11.2-1.3 9.93-0.68 8.65-0.05 7.25-0.05L7.25-0.05Q5.9-0.05 4.63-0.7 3.35-1.35 2.55-2.73 1.75-4.1 1.75-6.25L1.75-6.25Q1.75-8.3 2.48-10.73 3.2-13.15 4.3-15.68 5.4-18.2 6.55-20.63 7.7-23.05 8.63-25.18 9.55-27.3 9.85-28.9L9.85-28.9Q8.85-29.6 7.7-29.6L7.7-29.6Q6.75-29.6 5.78-28.98 4.8-28.35 3.95-26.9L3.95-26.9 3.6-27.05Q3.65-29.6 4.7-31.73 5.75-33.85 7.48-35.13 9.2-36.4 11.25-36.4L11.25-36.4Q13.6-36.4 16.1-34.35 18.6-32.3 20.73-27.6 22.85-22.9 24.15-14.9L24.15-14.9Q26.05-21.05 28.25-25.2 30.45-29.35 32.77-31.8 35.1-34.25 37.38-35.33 39.65-36.4 41.7-36.4L41.7-36.4Q44.25-36.4 46.28-35.15 48.3-33.9 49.48-32 50.65-30.1 50.65-28.2L50.65-28.2Q49.4-28.55 48.18-28.7 46.95-28.85 45.8-28.85L45.8-28.85Q44.65-28.85 43.6-28.7L43.6-28.7Q43.15-26.4 42.65-23.58 42.15-20.75 41.78-17.9 41.4-15.05 41.4-12.65L41.4-12.65Q41.4-10.2 41.9-8.65 42.4-7.1 43.65-7.1L43.65-7.1Q44.45-7.1 45.28-7.8 46.1-8.5 46.5-9.95L46.5-9.95 46.85-9.8Q46.85-6.5 45.75-4.33 44.65-2.15 42.93-1.07 41.2 0 39.4 0ZM62.05 0.35L62.05 0.35Q58.4 0.35 56-1.13 53.6-2.6 52.4-5.03 51.2-7.45 51.2-10.25L51.2-10.25Q51.2-12.9 52.22-15.58 53.25-18.25 55.22-20.45 57.2-22.65 60.02-24 62.85-25.35 66.4-25.35L66.4-25.35Q70.8-25.35 72.82-23.38 74.85-21.4 74.85-18.6L74.85-18.6Q74.85-16.2 73.57-14.18 72.3-12.15 70.2-10.93 68.1-9.7 65.6-9.7L65.6-9.7Q64.3-9.7 62.95-10.1 61.6-10.5 60.3-11.35L60.3-11.35Q60.55-8.25 62.1-6.85 63.65-5.45 65.8-5.45L65.8-5.45Q67.3-5.45 68.8-6.03 70.3-6.6 71.57-7.53 72.85-8.45 73.55-9.5L73.55-9.5 73.9-9.25Q73.9-6.65 72.82-4.83 71.75-3 70-1.85 68.25-0.7 66.17-0.18 64.1 0.35 62.05 0.35ZM63.2-13.15L63.2-13.15Q64.8-13.15 65.8-14.08 66.8-15 67.3-16.25 67.8-17.5 67.8-18.45L67.8-18.45Q67.8-19.6 67.15-20.38 66.5-21.15 65.35-21.15L65.35-21.15Q64.45-21.15 63.37-20.5 62.3-19.85 61.45-18.28 60.6-16.7 60.35-13.9L60.35-13.9Q61.95-13.15 63.2-13.15ZM84.5 0.2L84.5 0.2Q82.7 0.2 81.12-1.05 79.55-2.3 78.57-4.7 77.6-7.1 77.6-10.5L77.6-10.5Q77.6-14 78.6-16.75 79.6-19.5 81.22-21.43 82.85-23.35 84.77-24.35 86.7-25.35 88.55-25.35L88.55-25.35Q90.6-25.35 92.2-24.08 93.8-22.8 94.4-20.1L94.4-20.1Q94.85-22.6 95.17-24.88 95.5-27.15 95.5-28.9L95.5-28.9Q95.5-31.2 94.9-32.25L94.9-32.25 94.9-32.55Q96.05-33.85 97.42-34.48 98.8-35.1 100.05-35.1L100.05-35.1Q101.7-35.1 102.85-34.08 104-33.05 104-31.15L104-31.15Q104-30.1 103.65-28.05 103.3-26 102.8-23.38 102.3-20.75 101.77-17.98 101.25-15.2 100.9-12.68 100.55-10.15 100.55-8.3L100.55-8.3Q100.55-6.75 100.87-5.83 101.2-4.9 101.95-4.9L101.95-4.9Q102.5-4.9 103.07-5.28 103.65-5.65 103.85-6.15L103.85-6.15 104.2-5.9Q104.2-4.25 103.15-2.88 102.1-1.5 100.5-0.65 98.9 0.2 97.2 0.2L97.2 0.2Q95.35 0.2 94.27-0.83 93.2-1.85 92.75-3.45 92.3-5.05 92.25-6.75L92.25-6.75Q90.7-3.15 88.62-1.48 86.55 0.2 84.5 0.2ZM87.85-6.15L87.85-6.15Q89.15-6.15 90.75-8.5 92.35-10.85 93.55-15.35L93.55-15.35 93.85-16.9Q93.05-18.75 92.12-19.53 91.2-20.3 90.35-20.3L90.35-20.3Q89.1-20.3 88-18.93 86.9-17.55 86.22-15.43 85.55-13.3 85.55-10.95L85.55-10.95Q85.55-8.7 86.2-7.43 86.85-6.15 87.85-6.15ZM115.84-26.75L115.84-26.75Q113.84-26.75 112.57-27.98 111.29-29.2 111.29-31.05L111.29-31.05Q111.29-33.05 112.79-34.5 114.29-35.95 116.44-35.95L116.44-35.95Q118.44-35.95 119.72-34.7 120.99-33.45 120.99-31.6L120.99-31.6Q120.99-29.6 119.49-28.18 117.99-26.75 115.84-26.75ZM112.34 0.2L112.34 0.2Q110.39 0.2 108.84-1.18 107.29-2.55 107.29-5.6L107.29-5.6Q107.29-7.35 107.77-8.88 108.24-10.4 108.87-11.85 109.49-13.3 109.97-14.68 110.44-16.05 110.44-17.4L110.44-17.4Q110.44-18.6 110.04-19.13 109.64-19.65 109.09-19.65L109.09-19.65Q108.24-19.65 107.44-18.55L107.44-18.55 107.09-18.75Q107.29-20.75 108.37-22.18 109.44-23.6 111.02-24.4 112.59-25.2 114.14-25.2L114.14-25.2Q116.04-25.2 117.44-23.98 118.84-22.75 118.84-20L118.84-20Q118.84-18.35 118.37-16.53 117.89-14.7 117.27-12.9 116.64-11.1 116.17-9.55 115.69-8 115.69-6.9L115.69-6.9Q115.69-5.95 116.07-5.55 116.44-5.15 116.89-5.15L116.89-5.15Q117.34-5.15 117.77-5.43 118.19-5.7 118.39-6.05L118.39-6.05 118.74-5.95Q118.74-4.1 117.77-2.73 116.79-1.35 115.34-0.58 113.89 0.2 112.34 0.2ZM132.34 0.35L132.34 0.35Q129.04 0.35 126.77-1.15 124.49-2.65 123.34-5.08 122.19-7.5 122.19-10.3L122.19-10.3Q122.19-12.95 123.22-15.6 124.24-18.25 126.24-20.48 128.24-22.7 131.12-24.03 133.99-25.35 137.74-25.35L137.74-25.35Q141.44-25.35 143.24-23.88 145.04-22.4 145.04-20.65L145.04-20.65Q145.04-18.8 143.19-17.25 141.34-15.7 137.79-15.7L137.79-15.7Q137.99-16.45 138.12-17.23 138.24-18 138.24-18.7L138.24-18.7Q138.24-19.75 137.79-20.48 137.34-21.2 136.19-21.2L136.19-21.2Q135.14-21.2 133.97-20.25 132.79-19.3 131.97-17.45 131.14-15.6 131.14-12.9L131.14-12.9Q131.14-10.25 132.02-8.6 132.89-6.95 134.29-6.23 135.69-5.5 137.24-5.5L137.24-5.5Q139.29-5.5 141.19-6.58 143.09-7.65 143.94-9.55L143.94-9.55 144.44-9.35Q144.44-6.75 143.27-4.93 142.09-3.1 140.24-1.93 138.39-0.75 136.29-0.2 134.19 0.35 132.34 0.35ZM165.34 0.25L165.34 0.25Q163.59 0.25 162.29-0.9 160.99-2.05 160.99-4.65L160.99-4.65Q160.99-4.9 160.99-5.15 160.99-5.4 161.04-5.65L161.04-5.65Q159.54-2.65 157.66-1.23 155.79 0.2 153.89 0.2L153.89 0.2Q152.14 0.2 150.59-1.03 149.04-2.25 148.09-4.65 147.14-7.05 147.14-10.45L147.14-10.45Q147.14-13.95 148.11-16.7 149.09-19.45 150.69-21.35 152.29-23.25 154.19-24.23 156.09-25.2 157.89-25.2L157.89-25.2Q159.89-25.2 161.49-23.98 163.09-22.75 163.69-20.1L163.69-20.1Q163.84-20.95 163.91-21.65 163.99-22.35 163.99-22.6L163.99-22.6Q164.04-23.95 165.36-24.6 166.69-25.25 168.29-25.25L168.29-25.25Q169.69-25.25 170.94-24.7 172.19-24.15 172.64-22.85L172.64-22.85 172.74-22.55Q172.14-21.2 171.54-19.3 170.94-17.4 170.44-15.33 169.94-13.25 169.64-11.28 169.34-9.3 169.34-7.8L169.34-7.8Q169.34-6.15 169.69-5.53 170.04-4.9 170.54-4.9L170.54-4.9Q171.39-4.9 172.09-6.1L172.09-6.1 172.49-5.9Q172.49-4.2 171.39-2.8 170.29-1.4 168.64-0.58 166.99 0.25 165.34 0.25ZM157.19-6.1L157.19-6.1Q158.49-6.1 160.06-8.43 161.64-10.75 162.79-15.1L162.79-15.1Q162.89-15.55 162.99-15.98 163.09-16.4 163.14-16.8L163.14-16.8Q162.34-18.65 161.46-19.43 160.59-20.2 159.74-20.2L159.74-20.2Q158.49-20.2 157.41-18.88 156.34-17.55 155.66-15.55 154.99-13.55 154.99-11.55L154.99-11.55Q154.99-8.8 155.61-7.45 156.24-6.1 157.19-6.1ZM181.04 0.2L181.04 0.2Q179.69 0.2 178.41-0.48 177.14-1.15 176.34-2.65 175.54-4.15 175.54-6.5L175.54-6.5Q175.54-8.6 176.11-11.43 176.69-14.25 177.41-17.3 178.14-20.35 178.69-23.25 179.24-26.15 179.19-28.4L179.19-28.4Q179.19-30.55 178.69-31.45L178.69-31.45 178.64-31.6Q179.19-33.2 180.59-34.1 181.99-35 183.54-35L183.54-35Q185.29-35 186.66-33.68 188.04-32.35 188.04-29.25L188.04-29.25Q188.04-27.6 187.64-25.33 187.24-23.05 186.69-20.48 186.14-17.9 185.56-15.4 184.99-12.9 184.59-10.8 184.19-8.7 184.19-7.35L184.19-7.35Q184.19-5.95 184.59-5.43 184.99-4.9 185.49-4.9L185.49-4.9Q186.04-4.9 186.54-5.33 187.04-5.75 187.19-6.1L187.19-6.1 187.59-6Q187.54-4.2 186.56-2.8 185.59-1.4 184.11-0.6 182.64 0.2 181.04 0.2ZM210.78 0.2L210.78 0.2Q209.23 0.2 208.06-0.6 206.88-1.4 206.93-3L206.93-3Q207.03-5.8 207.36-9.2 207.68-12.6 208.13-16.13 208.58-19.65 209.06-22.9 209.53-26.15 209.93-28.7L209.93-28.7Q209.03-28.8 208.18-28.85 207.33-28.9 206.63-28.9L206.63-28.9Q204.53-28.9 202.86-28.5 201.18-28.1 200.03-27.1L200.03-27.1Q200.03-30.25 200.56-32.23 201.08-34.2 202.51-35.1 203.93-36 206.68-36L206.68-36Q208.68-36 211.16-35.68 213.63-35.35 216.18-35 218.73-34.65 220.93-34.65L220.93-34.65Q222.73-34.65 224.16-35 225.58-35.35 226.33-36.25L226.33-36.25Q227.43-35.9 228.03-34.73 228.63-33.55 228.63-32.15L228.63-32.15Q228.63-30.9 228.08-29.73 227.53-28.55 226.33-27.78 225.13-27 223.08-27L223.08-27Q222.13-27 220.76-27.18 219.38-27.35 217.83-27.55L217.83-27.55Q217.28-24.55 216.71-20.38 216.13-16.2 215.76-11.4 215.38-6.6 215.28-1.65L215.28-1.65Q214.38-0.7 213.16-0.25 211.93 0.2 210.78 0.2ZM235.03 0.2L235.03 0.2Q233.23 0.2 231.83-1.28 230.43-2.75 230.43-5.45L230.43-5.45Q230.43-6.75 230.73-8.4 231.03-10.05 231.43-11.78 231.83-13.5 232.13-15.03 232.43-16.55 232.43-17.55L232.43-17.55Q232.43-18.6 232.05-19.23 231.68-19.85 231.08-19.85L231.08-19.85Q230.13-19.85 229.13-18.55L229.13-18.55 228.83-18.75Q228.78-19.55 229.18-20.65 229.58-21.75 230.43-22.78 231.28-23.8 232.6-24.5 233.93-25.2 235.73-25.2L235.73-25.2Q238.38-25.2 239.58-23.68 240.78-22.15 240.78-20L240.78-20Q240.78-19.65 240.75-19.28 240.73-18.9 240.68-18.55L240.68-18.55Q242.48-21.8 244.45-23.53 246.43-25.25 248.13-25.25L248.13-25.25Q249.73-25.25 250.48-24 251.23-22.75 251.23-21L251.23-21Q251.23-19.4 250.6-17.75 249.98-16.1 248.75-15.03 247.53-13.95 245.78-14L245.78-14 245.58-14.1Q245.53-15.4 244.73-16.15 243.93-16.9 242.93-16.9L242.93-16.9Q241.58-16.9 240.4-15.55 239.23-14.2 239.23-11.65L239.23-11.65Q239.23-10.1 239.58-8.3 239.93-6.5 239.93-5.25L239.93-5.25Q239.93-3.75 239.23-2.5 238.53-1.25 237.43-0.53 236.33 0.2 235.03 0.2ZM270.93 0.25L270.93 0.25Q269.18 0.25 267.88-0.9 266.58-2.05 266.58-4.65L266.58-4.65Q266.58-4.9 266.58-5.15 266.58-5.4 266.63-5.65L266.63-5.65Q265.13-2.65 263.25-1.23 261.38 0.2 259.48 0.2L259.48 0.2Q257.73 0.2 256.18-1.03 254.63-2.25 253.68-4.65 252.73-7.05 252.73-10.45L252.73-10.45Q252.73-13.95 253.7-16.7 254.68-19.45 256.28-21.35 257.88-23.25 259.78-24.23 261.68-25.2 263.48-25.2L263.48-25.2Q265.48-25.2 267.08-23.98 268.68-22.75 269.28-20.1L269.28-20.1Q269.43-20.95 269.5-21.65 269.58-22.35 269.58-22.6L269.58-22.6Q269.63-23.95 270.95-24.6 272.28-25.25 273.88-25.25L273.88-25.25Q275.28-25.25 276.53-24.7 277.78-24.15 278.23-22.85L278.23-22.85 278.33-22.55Q277.73-21.2 277.13-19.3 276.53-17.4 276.03-15.33 275.53-13.25 275.23-11.28 274.93-9.3 274.93-7.8L274.93-7.8Q274.93-6.15 275.28-5.53 275.63-4.9 276.13-4.9L276.13-4.9Q276.98-4.9 277.68-6.1L277.68-6.1 278.08-5.9Q278.08-4.2 276.98-2.8 275.88-1.4 274.23-0.58 272.58 0.25 270.93 0.25ZM262.78-6.1L262.78-6.1Q264.08-6.1 265.65-8.43 267.23-10.75 268.38-15.1L268.38-15.1Q268.48-15.55 268.58-15.98 268.68-16.4 268.73-16.8L268.73-16.8Q267.93-18.65 267.05-19.43 266.18-20.2 265.33-20.2L265.33-20.2Q264.08-20.2 263-18.88 261.93-17.55 261.25-15.55 260.58-13.55 260.58-11.55L260.58-11.55Q260.58-8.8 261.2-7.45 261.83-6.1 262.78-6.1ZM290.57 0.35L290.57 0.35Q287.27 0.35 285-1.15 282.72-2.65 281.57-5.08 280.42-7.5 280.42-10.3L280.42-10.3Q280.42-12.95 281.45-15.6 282.47-18.25 284.47-20.48 286.47-22.7 289.35-24.03 292.22-25.35 295.97-25.35L295.97-25.35Q299.67-25.35 301.47-23.88 303.27-22.4 303.27-20.65L303.27-20.65Q303.27-18.8 301.42-17.25 299.57-15.7 296.02-15.7L296.02-15.7Q296.22-16.45 296.35-17.23 296.47-18 296.47-18.7L296.47-18.7Q296.47-19.75 296.02-20.48 295.57-21.2 294.42-21.2L294.42-21.2Q293.37-21.2 292.2-20.25 291.02-19.3 290.2-17.45 289.37-15.6 289.37-12.9L289.37-12.9Q289.37-10.25 290.25-8.6 291.12-6.95 292.52-6.23 293.92-5.5 295.47-5.5L295.47-5.5Q297.52-5.5 299.42-6.58 301.32-7.65 302.17-9.55L302.17-9.55 302.67-9.35Q302.67-6.75 301.5-4.93 300.32-3.1 298.47-1.93 296.62-0.75 294.52-0.2 292.42 0.35 290.57 0.35ZM323.87 0.25L323.87 0.25Q322.22 0.25 320.77-0.53 319.32-1.3 318.42-2.8 317.52-4.3 317.52-6.4L317.52-6.4Q317.52-8.55 318.57-11.25L318.57-11.25Q319.37-11.65 320.47-12.5 321.57-13.35 322.42-14.43 323.27-15.5 323.27-16.55L323.27-16.55Q323.27-17.5 322.55-18.05 321.82-18.6 320.77-18.6L320.77-18.6Q319.47-18.6 318.32-17.8 317.17-17 316.3-15.73 315.42-14.45 314.95-12.98 314.47-11.5 314.47-10.15L314.47-10.15Q314.47-8.85 314.8-7.73 315.12-6.6 315.12-5.15L315.12-5.15Q315.12-2.9 313.92-1.35 312.72 0.2 310.37 0.2L310.37 0.2Q308.22 0.2 306.92-1.25 305.62-2.7 305.62-5.2L305.62-5.2Q305.62-6.5 305.95-8.65 306.27-10.8 306.77-13.4 307.27-16 307.75-18.78 308.22-21.55 308.55-24.13 308.87-26.7 308.87-28.75L308.87-28.75Q308.87-29.85 308.75-30.78 308.62-31.7 308.22-32.25L308.22-32.25 308.22-32.55Q309.32-33.8 310.62-34.4 311.92-35 313.17-35L313.17-35Q315.07-35 316.42-33.65 317.77-32.3 317.77-29.65L317.77-29.65Q317.77-28.25 317.4-26.25 317.02-24.25 316.5-22.05 315.97-19.85 315.42-17.85L315.42-17.85Q316.52-19.45 317.92-21.15 319.32-22.85 321.07-24.03 322.82-25.2 325.02-25.2L325.02-25.2Q327.57-25.2 329.02-23.58 330.47-21.95 330.47-19.7L330.47-19.7Q330.47-17.45 328.85-14.9 327.22-12.35 323.42-10.6L323.42-10.6Q324.07-9.15 325.22-8 326.37-6.85 327.75-6.23 329.12-5.6 330.32-5.6L330.32-5.6Q330.92-5.6 331.37-5.8L331.37-5.8 331.67-5.5Q330.42-2.6 328.25-1.18 326.07 0.25 323.87 0.25ZM343.92 0.35L343.92 0.35Q340.27 0.35 337.87-1.13 335.47-2.6 334.27-5.03 333.07-7.45 333.07-10.25L333.07-10.25Q333.07-12.9 334.09-15.58 335.12-18.25 337.09-20.45 339.07-22.65 341.89-24 344.72-25.35 348.27-25.35L348.27-25.35Q352.67-25.35 354.69-23.38 356.72-21.4 356.72-18.6L356.72-18.6Q356.72-16.2 355.44-14.18 354.17-12.15 352.07-10.93 349.97-9.7 347.47-9.7L347.47-9.7Q346.17-9.7 344.82-10.1 343.47-10.5 342.17-11.35L342.17-11.35Q342.42-8.25 343.97-6.85 345.52-5.45 347.67-5.45L347.67-5.45Q349.17-5.45 350.67-6.03 352.17-6.6 353.44-7.53 354.72-8.45 355.42-9.5L355.42-9.5 355.77-9.25Q355.77-6.65 354.69-4.83 353.62-3 351.87-1.85 350.12-0.7 348.04-0.18 345.97 0.35 343.92 0.35ZM345.07-13.15L345.07-13.15Q346.67-13.15 347.67-14.08 348.67-15 349.17-16.25 349.67-17.5 349.67-18.45L349.67-18.45Q349.67-19.6 349.02-20.38 348.37-21.15 347.22-21.15L347.22-21.15Q346.32-21.15 345.24-20.5 344.17-19.85 343.32-18.28 342.47-16.7 342.22-13.9L342.22-13.9Q343.82-13.15 345.07-13.15ZM365.07 0.2L365.07 0.2Q363.27 0.2 361.87-1.28 360.47-2.75 360.47-5.45L360.47-5.45Q360.47-6.75 360.77-8.4 361.07-10.05 361.47-11.78 361.87-13.5 362.17-15.03 362.47-16.55 362.47-17.55L362.47-17.55Q362.47-18.6 362.09-19.23 361.72-19.85 361.12-19.85L361.12-19.85Q360.17-19.85 359.17-18.55L359.17-18.55 358.87-18.75Q358.82-19.55 359.22-20.65 359.62-21.75 360.47-22.78 361.32-23.8 362.64-24.5 363.97-25.2 365.77-25.2L365.77-25.2Q368.42-25.2 369.62-23.68 370.82-22.15 370.82-20L370.82-20Q370.82-19.65 370.79-19.28 370.77-18.9 370.72-18.55L370.72-18.55Q372.52-21.8 374.49-23.53 376.47-25.25 378.17-25.25L378.17-25.25Q379.77-25.25 380.52-24 381.27-22.75 381.27-21L381.27-21Q381.27-19.4 380.64-17.75 380.02-16.1 378.79-15.03 377.57-13.95 375.82-14L375.82-14 375.62-14.1Q375.57-15.4 374.77-16.15 373.97-16.9 372.97-16.9L372.97-16.9Q371.62-16.9 370.44-15.55 369.27-14.2 369.27-11.65L369.27-11.65Q369.27-10.1 369.62-8.3 369.97-6.5 369.97-5.25L369.97-5.25Q369.97-3.75 369.27-2.5 368.57-1.25 367.47-0.53 366.37 0.2 365.07 0.2ZM400.41 0.3L400.41 0.3Q397.06 0.3 394.89-0.85 392.71-2 391.66-3.8 390.61-5.6 390.61-7.5L390.61-7.5Q390.61-9.35 391.51-11.03 392.41-12.7 394.09-13.8 395.76-14.9 398.06-14.9L398.06-14.9Q398.01-14.45 398.01-14.08 398.01-13.7 398.01-13.7L398.01-13.7Q398.01-10.35 398.66-8.43 399.31-6.5 400.31-5.68 401.31-4.85 402.36-4.85L402.36-4.85Q403.96-4.85 405.21-6.13 406.46-7.4 406.46-9.1L406.46-9.1Q406.46-11 404.84-12.45 403.21-13.9 400.71-15.65L400.71-15.65Q399.31-16.7 397.74-18.03 396.16-19.35 395.06-21.18 393.96-23 393.96-25.5L393.96-25.5Q393.96-28.1 395.19-30.1 396.41-32.1 398.44-33.48 400.46-34.85 402.89-35.58 405.31-36.3 407.71-36.3L407.71-36.3Q410.66-36.3 412.56-35.35 414.46-34.4 415.41-32.9 416.36-31.4 416.36-29.8L416.36-29.8Q416.36-28.3 415.54-26.93 414.71-25.55 413.11-24.7 411.51-23.85 409.16-23.85L409.16-23.85Q409.31-24.55 409.36-25.13 409.41-25.7 409.41-26.15L409.41-26.15Q409.41-28.65 408.34-29.73 407.26-30.8 405.96-30.8L405.96-30.8Q404.71-30.8 403.56-29.88 402.41-28.95 402.41-26.9L402.41-26.9Q402.41-25.15 403.34-23.9 404.26-22.65 405.74-21.7 407.21-20.75 408.86-19.85L408.86-19.85Q410.56-18.95 412.14-17.88 413.71-16.8 414.76-15.35 415.81-13.9 415.81-11.7L415.81-11.7Q415.81-9.4 414.56-7.23 413.31-5.05 411.16-3.38 409.01-1.7 406.24-0.7 403.46 0.3 400.41 0.3ZM429.26 10L429.26 10Q426.76 10 425.23 8.47 423.71 6.95 423.71 4.35L423.71 4.35Q423.71 3 424.18 1.38 424.66-0.25 425.76-2.05L425.76-2.05Q423.31-2.2 421.73-3.7 420.16-5.2 420.16-8.25L420.16-8.25Q420.16-10.05 420.63-12.13 421.11-14.2 421.56-16.03 422.01-17.85 422.01-18.85L422.01-18.85Q422.01-19.6 421.71-19.93 421.41-20.25 421.01-20.25L421.01-20.25Q420.61-20.25 420.13-19.93 419.66-19.6 419.41-18.95L419.41-18.95 418.56-19.85Q418.86-21.4 419.86-22.6 420.86-23.8 422.31-24.5 423.76-25.2 425.31-25.2L425.31-25.2Q427.06-25.2 428.36-24.08 429.66-22.95 429.66-20L429.66-20Q429.66-18.15 429.21-16.03 428.76-13.9 428.31-12.03 427.86-10.15 427.86-9.05L427.86-9.05Q427.86-8.05 428.28-7.58 428.71-7.1 429.26-7.1L429.26-7.1Q429.96-7.1 430.86-7.88 431.76-8.65 432.56-10.45 433.36-12.25 433.61-15.3L433.61-15.3Q433.71-16.25 433.76-17.73 433.81-19.2 433.86-20.48 433.91-21.75 433.91-22.05L433.91-22.05Q433.91-23.85 435.23-24.58 436.56-25.3 438.16-25.3L438.16-25.3Q439.56-25.3 440.81-24.75 442.06-24.2 442.51-22.9L442.51-22.9 442.61-22.6Q442.16-22.2 441.83-19.9 441.51-17.6 441.06-13.75L441.06-13.75Q440.76-11.25 440.31-8.1 439.86-4.95 439.08-1.78 438.31 1.4 437.03 4.08 435.76 6.75 433.86 8.38 431.96 10 429.26 10ZM428.06 4.25L428.06 4.25Q429.61 4.25 430.83 1.43 432.06-1.4 432.76-6.6L432.76-6.6Q429.56-2.5 428.36-0.15 427.16 2.2 427.16 3.25L427.16 3.25Q427.16 4.25 428.06 4.25ZM453.61 0.45L453.61 0.45Q450.51 0.45 448.46-0.4 446.41-1.25 445.41-2.58 444.41-3.9 444.41-5.25L444.41-5.25Q444.41-7.15 446.11-8.63 447.81-10.1 450.71-10.1L450.71-10.1Q450.71-7.55 451.36-6.03 452.01-4.5 453.03-3.85 454.06-3.2 455.01-3.2L455.01-3.2Q456.16-3.2 456.93-3.88 457.71-4.55 457.71-5.55L457.71-5.55Q457.71-6.95 456.26-8 454.81-9.05 452.51-10.35L452.51-10.35Q451.36-11.05 450.01-11.98 448.66-12.9 447.71-14.23 446.76-15.55 446.76-17.4L446.76-17.4Q446.76-19.35 447.88-20.85 449.01-22.35 450.86-23.38 452.71-24.4 454.86-24.93 457.01-25.45 459.06-25.45L459.06-25.45Q462.91-25.45 464.86-23.9 466.81-22.35 466.81-20.6L466.81-20.6Q466.81-19.1 465.31-17.9 463.81-16.7 460.71-16.7L460.71-16.7Q460.76-19.25 459.66-20.43 458.56-21.6 457.31-21.6L457.31-21.6Q456.41-21.6 455.81-21.05 455.21-20.5 455.21-19.45L455.21-19.45Q455.21-18.25 455.98-17.38 456.76-16.5 457.93-15.83 459.11-15.15 460.36-14.55L460.36-14.55Q462.06-13.75 463.56-12.85 465.06-11.95 466.01-10.8 466.96-9.65 466.96-8L466.96-8Q466.96-5.75 465.13-3.83 463.31-1.9 460.26-0.73 457.21 0.45 453.61 0.45ZM476.95 0.2L476.95 0.2Q475.35 0.2 473.93-0.53 472.5-1.25 471.63-2.8 470.75-4.35 470.75-6.75L470.75-6.75Q470.75-8.05 471-10.15 471.25-12.25 471.68-14.75 472.1-17.25 472.55-19.75L472.55-19.75Q471.55-19.7 470.63-19.55 469.7-19.4 468.8-19.2L468.8-19.2 468.7-19.55Q469.7-20.75 470.8-21.6 471.9-22.45 473.1-23L473.1-23Q473.75-26.3 474.2-28.73 474.65-31.15 474.65-31.6L474.65-31.6Q474.65-32.45 475.98-33 477.3-33.55 478.95-33.55L478.95-33.55Q480.4-33.55 481.68-33 482.95-32.45 483.4-31.15L483.4-31.15Q483.1-30.85 482.55-28.93 482-27 481.4-24.25L481.4-24.25Q482.35-24.2 483.35-24.15 484.35-24.1 485.4-24L485.4-24Q485.5-23.7 485.55-23.35 485.6-23 485.6-22.6L485.6-22.6Q485.6-21.85 485.38-20.98 485.15-20.1 484.85-19.4L484.85-19.4Q483.65-19.5 482.6-19.63 481.55-19.75 480.55-19.8L480.55-19.8Q480.15-17.65 479.83-15.5 479.5-13.35 479.33-11.6 479.15-9.85 479.15-8.85L479.15-8.85Q479.15-6.75 479.93-6.05 480.7-5.35 481.8-5.35L481.8-5.35Q482.8-5.35 483.6-5.75 484.4-6.15 484.75-6.7L484.75-6.7 485.25-6.55Q484.95-4.5 483.65-2.98 482.35-1.45 480.55-0.63 478.75 0.2 476.95 0.2ZM498.25 0.35L498.25 0.35Q494.6 0.35 492.2-1.13 489.8-2.6 488.6-5.03 487.4-7.45 487.4-10.25L487.4-10.25Q487.4-12.9 488.43-15.58 489.45-18.25 491.43-20.45 493.4-22.65 496.23-24 499.05-25.35 502.6-25.35L502.6-25.35Q507-25.35 509.03-23.38 511.05-21.4 511.05-18.6L511.05-18.6Q511.05-16.2 509.78-14.18 508.5-12.15 506.4-10.93 504.3-9.7 501.8-9.7L501.8-9.7Q500.5-9.7 499.15-10.1 497.8-10.5 496.5-11.35L496.5-11.35Q496.75-8.25 498.3-6.85 499.85-5.45 502-5.45L502-5.45Q503.5-5.45 505-6.03 506.5-6.6 507.78-7.53 509.05-8.45 509.75-9.5L509.75-9.5 510.1-9.25Q510.1-6.65 509.03-4.83 507.95-3 506.2-1.85 504.45-0.7 502.38-0.18 500.3 0.35 498.25 0.35ZM499.4-13.15L499.4-13.15Q501-13.15 502-14.08 503-15 503.5-16.25 504-17.5 504-18.45L504-18.45Q504-19.6 503.35-20.38 502.7-21.15 501.55-21.15L501.55-21.15Q500.65-21.15 499.58-20.5 498.5-19.85 497.65-18.28 496.8-16.7 496.55-13.9L496.55-13.9Q498.15-13.15 499.4-13.15ZM518.95 0.2L518.95 0.2Q517.15 0.2 515.72-1.28 514.3-2.75 514.3-5.35L514.3-5.35Q514.3-6.65 514.65-8.33 515-10 515.42-11.75 515.85-13.5 516.2-15.05 516.55-16.6 516.55-17.65L516.55-17.65Q516.55-18.5 516.15-19.03 515.75-19.55 515.1-19.55L515.1-19.55Q514.25-19.55 513.25-18.55L513.25-18.55 512.95-18.75Q512.9-19.55 513.3-20.65 513.7-21.75 514.6-22.78 515.5-23.8 516.95-24.5 518.4-25.2 520.4-25.2L520.4-25.2Q522.65-25.2 523.77-23.63 524.9-22.05 524.9-19.85L524.9-19.85Q524.9-19.6 524.9-19.33 524.9-19.05 524.85-18.8L524.85-18.8Q525.8-20.35 527.07-21.8 528.35-23.25 529.97-24.23 531.6-25.2 533.5-25.2L533.5-25.2Q535.95-25.2 536.9-23.63 537.85-22.05 537.85-20.05L537.85-20.05Q537.85-19.65 537.82-19.28 537.8-18.9 537.75-18.55L537.75-18.55Q538.8-20.1 540.07-21.63 541.35-23.15 543-24.18 544.65-25.2 546.8-25.2L546.8-25.2Q549.45-25.2 550.42-23.65 551.4-22.1 551.4-20L551.4-20Q551.4-18.15 550.95-15.78 550.5-13.4 550.05-11.1 549.6-8.8 549.6-7.2L549.6-7.2Q549.6-6.25 549.87-5.65 550.15-5.05 550.8-5.05L550.8-5.05Q551.35-5.05 551.82-5.38 552.3-5.7 552.5-6.15L552.5-6.15 552.9-6Q552.9-4.15 551.85-2.75 550.8-1.35 549.2-0.58 547.6 0.2 546 0.2L546 0.2Q544.05 0.2 542.57-1.1 541.1-2.4 541.1-5.4L541.1-5.4Q541.1-7.25 541.57-9.4 542.05-11.55 542.52-13.58 543-15.6 543-16.9L543-16.9Q543-18.75 541.7-18.75L541.7-18.75Q540.75-18.75 539.82-17.98 538.9-17.2 538.17-15.93 537.45-14.65 537-13.25 536.55-11.85 536.55-10.55L536.55-10.55Q536.55-9.35 536.82-7.93 537.1-6.5 537.1-5.2L537.1-5.2Q537.1-2.6 535.65-1.2 534.2 0.2 532.25 0.2L532.25 0.2Q530.45 0.2 529.02-1 527.6-2.2 527.6-4.6L527.6-4.6Q527.6-5.7 527.9-7.28 528.2-8.85 528.57-10.58 528.95-12.3 529.25-13.9 529.55-15.5 529.55-16.7L529.55-16.7Q529.55-17.65 529.27-18.2 529-18.75 528.2-18.75L528.2-18.75Q527.05-18.75 526-17.6 524.95-16.45 524.2-14.83 523.45-13.2 523.2-11.7L523.2-11.7Q523.15-11.35 523.12-11.15 523.1-10.95 523.1-10.95L523.1-10.95Q523.1-9.4 523.45-8.13 523.8-6.85 523.8-5.5L523.8-5.5Q523.8-3.05 522.32-1.43 520.85 0.2 518.95 0.2Z" opacity="1" transform="matrix(1,0,0,1,0,0)" fill="#d5d5d5" class="slogan-text-1" data-fill-palette-color="secondary" id="text-1"></path></svg></g></svg></g></svg></g></svg></g><g><svg viewBox="0 0 196.865457285912 196.865457285912" height="196.865457285912" width="196.865457285912"><g><svg></svg></g><g id="icon-0"><svg viewBox="0 0 196.865457285912 196.865457285912" height="196.865457285912" width="196.865457285912"><g><path d="M0 98.433c0-54.363 44.07-98.433 98.433-98.433 54.363 0 98.433 44.07 98.432 98.433 0 54.363-44.07 98.433-98.432 98.432-54.363 0-98.433-44.07-98.433-98.432zM98.433 192.421c51.908 0 93.988-42.08 93.988-93.988 0-51.908-42.08-93.988-93.988-93.988-51.908 0-93.988 42.08-93.988 93.988 0 51.908 42.08 93.988 93.988 93.988z" data-fill-palette-color="accent" fill="#ffffff" stroke="transparent"></path></g><g transform="matrix(1,0,0,1,40.61582730842667,40.61518962435931)"><svg viewBox="0 0 115.63380266905865 115.63507803719337" height="115.63507803719337" width="115.63380266905865"><g><svg xmlns="http://www.w3.org/2000/svg" xmlns:xlink="http://www.w3.org/1999/xlink" version="1.1" x="0" y="0" viewBox="26.708 26.666 90.667 90.668" enable-background="new 0 0 144.083 144" xml:space="preserve" height="115.63507803719337" width="115.63380266905865" class="icon-dxe-0" data-fill-palette-color="accent" id="dxe-0"><path d="M72.042 26.666C47.005 26.666 26.708 46.963 26.708 72S47.005 117.334 72.042 117.334 117.375 97.037 117.375 72 97.079 26.666 72.042 26.666M99.409 82.855H82.897V99.368H61.185V82.855H44.673V61.145H61.185V44.632H82.897V61.145H99.409z" fill="#ffffff" data-fill-palette-color="accent"></path></svg></g></svg></g></svg></g></svg></g></svg></g><defs></defs></svg><rect width="395.52" height="126.47344217866566" fill="none" stroke="none" visibility="hidden"></rect></g></svg></g></svg>